<svg width="158" height="126" viewBox="0 0 158 126" fill="none" xmlns="http://www.w3.org/2000/svg">
<mask id="mask0_2651_901" style="mask-type:luminance" maskUnits="userSpaceOnUse" x="95" y="42" width="18" height="19">
<path d="M103.655 60.2257C105.379 60.2641 107.075 59.7881 108.527 58.8584C109.979 57.9287 111.121 56.5875 111.808 55.0059C112.494 53.4242 112.694 51.6739 112.381 49.9783C112.069 48.2827 111.258 46.7187 110.053 45.4858C108.847 44.253 107.302 43.4072 105.614 43.0564C103.926 42.7057 102.171 42.8658 100.575 43.5165C98.9778 44.1671 97.6112 45.2787 96.649 46.7094C95.6868 48.1401 95.1726 49.8251 95.1722 51.5493C95.1521 53.8231 96.0332 56.0123 97.6229 57.6383C99.2126 59.2642 101.381 60.1945 103.655 60.2257Z" fill="white"/>
</mask>
<g mask="url(#mask0_2651_901)">
<path d="M119.829 36.6016H82.1562V64.8563H119.829V36.6016Z" fill="url(#paint0_radial_2651_901)"/>
</g>
<mask id="mask1_2651_901" style="mask-type:luminance" maskUnits="userSpaceOnUse" x="57" y="0" width="60" height="82">
<path d="M75.9223 81.5066C80.8251 81.4443 85.503 79.4396 88.9295 75.9324C92.3561 72.4253 94.2514 67.7021 94.1998 62.7991C94.218 59.9374 93.5823 57.1093 92.3414 54.5306C91.1005 51.9518 89.287 49.6905 87.0393 47.9192C88.6198 41.0275 94.5653 31.6845 101.21 29.0181C101.532 29.0181 101.855 29.0181 102.188 29.0181C105.989 28.9699 109.617 27.4179 112.276 24.7018C114.936 21.9857 116.412 18.3266 116.38 14.5252C116.42 10.7146 114.945 7.04395 112.28 4.32022C109.615 1.59648 105.977 0.0425428 102.167 0C99.9254 0.00431191 97.7175 0.54302 95.7261 1.57143C93.7347 2.59983 92.0173 4.08829 90.7163 5.91329C89.6342 7.40279 88.846 9.08497 88.394 10.8697C84.889 14.9875 78.0834 12.9017 75.6321 8.9452C75.0795 8.01447 74.346 7.20399 73.4748 6.56169C72.6035 5.91939 71.6124 5.45831 70.5599 5.20571C69.5074 4.95311 68.415 4.91413 67.3471 5.09106C66.2793 5.268 65.2578 5.65726 64.343 6.23583C62.4841 7.43332 61.1663 9.30932 60.6703 11.4642C60.1742 13.619 60.5392 15.8824 61.6874 17.7721C62.24 18.7028 62.9735 19.5133 63.8447 20.1556C64.7159 20.7979 65.7071 21.259 66.7596 21.5116C67.8121 21.7642 68.9045 21.8032 69.9724 21.6263C71.0402 21.4493 72.0617 21.0601 72.9764 20.4815C73.7494 19.9965 74.4362 19.386 75.0085 18.6752C79.8144 15.31 86.5233 16.1917 89.6412 21.4276C92.7376 27.6742 86.319 40.6942 81.5561 44.9948C79.7384 44.3938 77.8368 44.0854 75.9223 44.0809C70.9608 44.0809 66.2025 46.0519 62.6941 49.5602C59.1858 53.0685 57.2148 57.8269 57.2148 62.7884C57.2148 67.7499 59.1858 72.5083 62.6941 76.0166C66.2025 79.5249 70.9608 81.4959 75.9223 81.4959" fill="white"/>
</mask>
<g mask="url(#mask1_2651_901)">
<path d="M95.1715 36.1875H57.0469V84.612H95.1715V36.1875Z" fill="#5F2D88"/>
<path d="M69.1235 4.16406H59.5117V21.9254H69.1235V4.16406Z" fill="#5F2D88"/>
<path d="M134.649 -6.82812H65.7539V37.6291H134.649V-6.82812Z" fill="url(#paint1_radial_2651_901)"/>
</g>
<mask id="mask2_2651_901" style="mask-type:luminance" maskUnits="userSpaceOnUse" x="40" y="17" width="44" height="22">
<path d="M51.9832 38.2747C53.8011 38.2901 55.5961 37.8696 57.218 37.0484C58.8398 36.2271 60.2412 35.0292 61.3047 33.5548C66.0891 28.0931 71.1208 27.3513 74.5935 30.1144L75.0128 30.4692C75.1848 30.5874 75.3569 30.7057 75.5396 30.8132C76.7729 31.5402 78.2363 31.7713 79.6337 31.4599C81.031 31.1485 82.2577 30.3178 83.0656 29.136C83.4411 28.5592 83.6937 27.9112 83.8077 27.2325C83.9217 26.5538 83.8946 25.8589 83.7281 25.1911C83.5617 24.5233 83.2594 23.8969 82.8402 23.3511C82.4211 22.8053 81.8939 22.3517 81.2917 22.0185C80.1127 21.325 78.7223 21.0822 77.378 21.3353C76.0338 21.5883 74.8268 22.32 73.9807 23.3947C72.9055 24.7064 69.4113 25.7063 66.5622 24.9537C64.0786 24.3086 62.2616 22.4056 60.9822 21.567C59.903 20.2079 58.5271 19.1137 56.9598 18.3683C55.3926 17.6229 53.6756 17.246 51.9402 17.2664C45.8119 17.2127 40.8125 21.954 40.8125 27.7598C40.8125 33.5656 45.8119 38.2747 51.9832 38.2747Z" fill="white"/>
</mask>
<g mask="url(#mask2_2651_901)">
<path d="M87.1872 11.8281H34.1289V43.6954H87.1872V11.8281Z" fill="url(#paint2_radial_2651_901)"/>
</g>
<path fill-rule="evenodd" clip-rule="evenodd" d="M0.0390625 118.68H2.48033C2.79718 118.679 3.11352 118.705 3.42617 118.756C3.70878 118.802 3.97869 118.907 4.21862 119.063C4.4508 119.201 4.64084 119.4 4.76823 119.638C4.95453 120.045 5.01513 120.499 4.94227 120.941C4.86941 121.382 4.6664 121.792 4.35922 122.118C3.8337 122.499 3.1918 122.684 2.54424 122.642H0.52476V125.543H0.0390625V118.68ZM0.52476 122.143H2.55702C2.84998 122.148 3.14225 122.114 3.42617 122.041C3.64634 121.991 3.8519 121.89 4.0269 121.747C4.17787 121.622 4.29261 121.459 4.35922 121.274C4.4282 121.06 4.46272 120.835 4.46147 120.61C4.47201 120.354 4.41933 120.099 4.30809 119.868C4.21271 119.686 4.06614 119.535 3.8863 119.434C3.69558 119.33 3.48782 119.26 3.27279 119.229C3.02606 119.21 2.77819 119.21 2.53146 119.229H0.52476V122.143ZM11.0184 119.178H8.66659V125.569H8.18089V119.178H5.84187V118.68H11.0184V119.178Z" fill="#231F20" stroke="black" stroke-width="0.0816049" stroke-miterlimit="10"/>
<path fill-rule="evenodd" clip-rule="evenodd" d="M21.7058 125.542H21.2201V119.496L18.8044 125.542H18.2803L15.8646 119.496V125.542H15.3789V118.678H16.0947L18.5359 124.864L21.0028 118.627H21.7058V125.542ZM25.9748 125.67C25.6253 125.679 25.2763 125.636 24.9395 125.542C24.6858 125.471 24.4474 125.354 24.2365 125.197C24.0545 125.058 23.9023 124.884 23.7891 124.686C23.6801 124.487 23.5943 124.277 23.5335 124.059C23.4807 123.832 23.4465 123.601 23.4313 123.369C23.4187 123.135 23.4187 122.9 23.4313 122.666V118.678H23.9297V122.653C23.9184 123.083 23.9614 123.512 24.0576 123.931C24.1303 124.216 24.2706 124.479 24.4666 124.698C24.6455 124.88 24.8711 125.008 25.1184 125.069C25.6984 125.206 26.3023 125.206 26.8823 125.069C27.1317 125.013 27.3588 124.884 27.5341 124.698C27.7287 124.475 27.8648 124.207 27.9304 123.919C28.0343 123.501 28.0816 123.071 28.071 122.64V118.678H28.5567V122.666C28.5621 123.095 28.5235 123.523 28.4416 123.944C28.3568 124.283 28.1949 124.598 27.9687 124.864C27.7625 125.128 27.4887 125.332 27.1763 125.452C26.7931 125.6 26.3854 125.674 25.9748 125.67ZM33.158 125.67C32.7187 125.675 32.2831 125.588 31.8799 125.414C31.4932 125.255 31.1479 125.011 30.8701 124.698C30.5707 124.37 30.3442 123.983 30.2055 123.561C30.0466 123.087 29.9688 122.59 29.9754 122.091C29.9664 121.594 30.0487 121.1 30.2183 120.634C30.3577 120.223 30.5795 119.844 30.8701 119.522C31.1454 119.212 31.4859 118.968 31.8671 118.806C32.2726 118.64 32.7072 118.558 33.1452 118.563C33.4955 118.556 33.8448 118.604 34.1805 118.704C34.4816 118.789 34.7666 118.923 35.0241 119.1C35.2672 119.277 35.4753 119.498 35.6376 119.752C35.8074 119.997 35.9209 120.276 35.9699 120.57H35.4459C35.4133 120.363 35.3347 120.167 35.2158 119.995C35.0802 119.812 34.9162 119.653 34.7301 119.522C34.5121 119.383 34.2754 119.275 34.0271 119.202C33.74 119.123 33.4431 119.084 33.1452 119.087C32.7785 119.083 32.4142 119.148 32.0716 119.279C31.7452 119.4 31.4549 119.603 31.228 119.867C30.9787 120.139 30.7912 120.461 30.6784 120.813C30.423 121.667 30.423 122.578 30.6784 123.433C30.7935 123.787 30.9806 124.113 31.228 124.392C31.458 124.655 31.747 124.861 32.0716 124.992C32.4161 125.133 32.7857 125.203 33.158 125.197C33.6585 125.225 34.1578 125.122 34.6062 124.898C35.0546 124.674 35.4366 124.336 35.7143 123.919V122.64H33.7843V122.142H36.1361V125.478H35.8549L35.6376 124.634C35.4905 124.819 35.3184 124.983 35.1264 125.12C34.9388 125.249 34.7372 125.356 34.5256 125.44C34.3097 125.519 34.0873 125.579 33.861 125.619C33.6285 125.655 33.3933 125.672 33.158 125.67ZM37.9383 125.542V118.678H38.424V125.542H37.9383Z" fill="#231F20" stroke="black" stroke-width="0.0816049" stroke-miterlimit="10"/>
<path fill-rule="evenodd" clip-rule="evenodd" d="M48.4174 123.578C48.4351 123.847 48.3874 124.117 48.2784 124.364C48.1693 124.611 48.0021 124.828 47.7911 124.996C47.2608 125.365 46.6203 125.541 45.9761 125.495H43.5859V118.67H46.0272C46.57 118.635 47.1102 118.768 47.5738 119.053C47.7615 119.205 47.9087 119.402 48.0023 119.625C48.096 119.848 48.1332 120.09 48.1106 120.331C48.1233 120.497 48.1233 120.664 48.1106 120.83C48.078 120.996 48.0175 121.156 47.9317 121.303C47.8468 121.454 47.7341 121.589 47.5993 121.699C47.4366 121.82 47.2488 121.903 47.0497 121.942C47.3143 121.956 47.5721 122.03 47.8038 122.159C47.9796 122.252 48.129 122.389 48.2384 122.555C48.342 122.715 48.4156 122.893 48.4557 123.079C48.4524 123.246 48.4396 123.412 48.4174 123.578ZM44.0333 124.996H45.9761C47.2542 124.996 47.8933 124.523 47.8933 123.578C47.8966 123.356 47.8621 123.136 47.7911 122.926C47.7258 122.748 47.6048 122.595 47.446 122.491C47.2595 122.359 47.0452 122.272 46.8197 122.236C46.5006 122.167 46.1745 122.137 45.8483 122.146H44.0844L44.0333 124.996ZM44.0333 121.648H45.861C46.3059 121.668 46.7479 121.566 47.1392 121.354C47.2687 121.228 47.3717 121.079 47.442 120.913C47.5123 120.747 47.5486 120.569 47.5486 120.389C47.5486 120.209 47.5123 120.03 47.442 119.865C47.3717 119.699 47.2687 119.549 47.1392 119.424C46.756 119.189 46.3088 119.082 45.861 119.117H44.0844L44.0333 121.648ZM54.757 125.482H49.9511V118.67H54.642V119.168H50.4368V121.724H54.3735V122.223H50.4368V125.047H54.8081L54.757 125.482ZM61.659 125.482H61.1989L60.5215 123.667C60.4591 123.497 60.3866 123.33 60.3042 123.169C60.2239 123.023 60.1298 122.886 60.023 122.76C59.9166 122.649 59.791 122.558 59.6523 122.491C59.4999 122.422 59.3341 122.387 59.1666 122.389H56.7892V125.482H56.3035V118.67H59.3328C59.6073 118.669 59.8812 118.695 60.1508 118.746C60.4017 118.792 60.6408 118.887 60.8538 119.027C61.0638 119.165 61.2354 119.355 61.3523 119.577C61.4836 119.861 61.545 120.172 61.5312 120.484C61.5324 120.704 61.5066 120.923 61.4545 121.136C61.3956 121.327 61.3095 121.507 61.1989 121.673C61.0794 121.831 60.9321 121.965 60.7643 122.069C60.5788 122.183 60.3759 122.265 60.1636 122.312C60.2742 122.396 60.3768 122.491 60.4703 122.593C60.554 122.687 60.6269 122.79 60.6876 122.9C60.7506 123.007 60.8061 123.118 60.8538 123.233C60.8538 123.36 60.956 123.514 61.0072 123.667L61.659 125.482ZM56.7381 121.89H59.0771C59.3645 121.894 59.6515 121.869 59.9335 121.814C60.1436 121.772 60.3434 121.69 60.5215 121.571C60.6773 121.456 60.7935 121.295 60.8538 121.111C60.9368 120.895 60.9759 120.665 60.9688 120.433C60.9861 120.241 60.9542 120.047 60.8759 119.871C60.7976 119.694 60.6756 119.54 60.5215 119.424C60.1354 119.196 59.6904 119.09 59.2433 119.117H56.7892L56.7381 121.89ZM68.3437 125.482H67.6791L65.0333 121.775L63.6657 123.13V125.533H63.18V118.67H63.6657V122.504L67.5002 118.67H68.1776L65.4168 121.418L68.3437 125.482ZM74.824 125.482H74.236L73.4052 123.271H70.1459C70.0309 123.629 69.8903 123.999 69.7497 124.383C69.6091 124.766 69.4813 125.137 69.3407 125.482H68.8678C69.0851 124.894 69.3024 124.306 69.5196 123.744C69.7369 123.181 69.9414 122.606 70.1587 122.044L70.7978 120.357L71.4241 118.67H72.1143L74.824 125.482ZM73.2519 122.926L71.7181 119.155L70.2482 122.926H73.2519ZM81.0102 125.482H80.5118V122.121H76.4217V125.533H75.936V118.67H76.4217V121.622H80.5629V118.67H81.0614L81.0102 125.482Z" fill="#231F20" stroke="black" stroke-width="0.0816049" stroke-miterlimit="10"/>
<path fill-rule="evenodd" clip-rule="evenodd" d="M90.5949 123.575C90.6105 123.846 90.5619 124.117 90.4531 124.366C90.3442 124.614 90.1783 124.834 89.9686 125.006C89.4382 125.363 88.8043 125.534 88.1664 125.492H85.6484V118.667H88.0386C88.5812 118.634 89.121 118.767 89.5851 119.05C89.7737 119.202 89.9216 119.398 90.0153 119.621C90.109 119.845 90.1457 120.088 90.122 120.328C90.1346 120.494 90.1346 120.661 90.122 120.827C90.0894 120.993 90.0289 121.153 89.943 121.3C89.8582 121.452 89.7455 121.586 89.6107 121.696C89.448 121.817 89.2602 121.9 89.0611 121.939C89.3257 121.953 89.5835 122.028 89.8152 122.156C89.991 122.25 90.1404 122.386 90.2498 122.552C90.3534 122.712 90.427 122.89 90.4671 123.076C90.5194 123.24 90.5621 123.406 90.5949 123.575ZM86.198 124.994H88.0386C89.3167 124.994 89.943 124.521 89.943 123.575C89.9493 123.354 89.919 123.134 89.8536 122.923C89.7883 122.745 89.6673 122.592 89.5085 122.489C89.322 122.357 89.1077 122.269 88.8822 122.233C88.563 122.165 88.2369 122.135 87.9108 122.143H86.1341L86.198 124.994ZM86.198 121.645H88.013C88.4583 121.669 88.9014 121.567 89.2912 121.351C89.4439 121.237 89.5642 121.085 89.6404 120.91C89.7166 120.735 89.746 120.544 89.7257 120.354C89.7373 120.178 89.7075 120.002 89.6387 119.84C89.5699 119.678 89.464 119.535 89.3295 119.421C88.9459 119.189 88.4979 119.086 88.0514 119.127H86.1341L86.198 121.645ZM92.2948 125.479V118.667H92.7805V125.531L92.2948 125.479ZM97.5736 118.501C98.0119 118.492 98.4473 118.574 98.8518 118.744C99.2349 118.908 99.579 119.152 99.8615 119.459C100.152 119.782 100.374 120.16 100.513 120.571C100.677 121.04 100.759 121.532 100.756 122.028C100.752 122.56 100.644 123.085 100.437 123.575C100.294 123.992 100.073 124.379 99.7848 124.712C99.5039 125.019 99.1651 125.266 98.7879 125.441C98.3856 125.619 97.9493 125.706 97.5097 125.697C97.0703 125.704 96.6344 125.617 96.2315 125.441C95.8524 125.27 95.5129 125.022 95.2346 124.712C94.9364 124.381 94.7062 123.995 94.5572 123.575C94.3992 123.101 94.3214 122.604 94.3271 122.105C94.3181 121.609 94.4004 121.115 94.5699 120.648C94.7094 120.237 94.9312 119.859 95.2218 119.536C95.5019 119.226 95.8466 118.982 96.2315 118.82C96.6343 118.643 97.0696 118.552 97.5097 118.552L97.5736 118.501ZM97.5736 125.109C97.9416 125.114 98.3069 125.044 98.6473 124.904C98.9684 124.767 99.2561 124.562 99.4908 124.303C99.7382 124.025 99.9254 123.699 100.04 123.345C100.296 122.49 100.296 121.579 100.04 120.725C99.918 120.375 99.7268 120.053 99.478 119.779C99.2463 119.526 98.963 119.325 98.6473 119.191C98.309 119.06 97.949 118.995 97.5864 118.999C97.2222 118.991 96.8605 119.061 96.5255 119.204C96.2027 119.333 95.9109 119.529 95.6692 119.779C95.4244 120.059 95.2375 120.385 95.1196 120.737C94.9818 121.149 94.9127 121.581 94.915 122.016C94.9103 122.45 94.9794 122.882 95.1196 123.294C95.2307 123.65 95.4183 123.977 95.6692 124.252C95.8968 124.513 96.1809 124.719 96.5 124.853C96.8094 125.019 97.1479 125.123 97.4969 125.16L97.5736 125.109ZM106.776 119.114H104.361V125.505H103.862V119.114H101.536V118.616H106.648L106.776 119.114ZM112.848 125.505H107.927V118.667H112.617V119.165H108.412V121.722H112.323V122.22H108.412V125.045H112.771L112.848 125.505ZM119.558 125.505H118.893L116.158 121.773L114.803 123.128V125.531H114.317V118.667H114.803V122.501L118.638 118.667H119.315L116.554 121.415L119.558 125.505ZM125.949 125.505H125.31L121.194 119.229V125.505H120.708V118.667H121.271L125.335 124.93V118.667H125.834L125.949 125.505ZM130.486 118.526C130.924 118.519 131.359 118.602 131.764 118.769C132.145 118.931 132.486 119.175 132.761 119.485C133.06 119.803 133.287 120.183 133.426 120.597C133.75 121.541 133.75 122.567 133.426 123.511C133.283 123.929 133.062 124.315 132.774 124.649C132.493 124.955 132.154 125.203 131.777 125.377C131.374 125.553 130.938 125.64 130.499 125.633C130.059 125.642 129.623 125.555 129.221 125.377C128.84 125.203 128.496 124.955 128.211 124.649C127.923 124.319 127.701 123.937 127.559 123.524C127.401 123.05 127.323 122.553 127.329 122.054C127.322 121.559 127.4 121.066 127.559 120.597C127.708 120.187 127.934 119.81 128.224 119.485C128.504 119.175 128.848 118.931 129.233 118.769C129.596 118.627 129.982 118.553 130.371 118.552L130.486 118.526ZM130.486 125.134C130.85 125.142 131.212 125.073 131.547 124.93C131.871 124.799 132.16 124.593 132.39 124.329C132.646 124.055 132.838 123.727 132.953 123.37C133.208 122.516 133.208 121.605 132.953 120.75C132.83 120.401 132.639 120.079 132.39 119.804C132.159 119.551 131.875 119.351 131.56 119.216C131.221 119.086 130.861 119.021 130.499 119.025C130.131 119.02 129.766 119.089 129.425 119.229C129.108 119.362 128.821 119.558 128.582 119.804C128.337 120.084 128.15 120.41 128.032 120.763C127.894 121.175 127.825 121.607 127.827 122.041C127.824 122.475 127.889 122.906 128.019 123.319C128.139 123.671 128.326 123.997 128.569 124.278C128.804 124.536 129.091 124.741 129.412 124.879C129.712 125.031 130.037 125.126 130.371 125.16L130.486 125.134ZM139.05 125.505H135.087V118.667H135.586V125.058H139.05V125.505ZM143.229 118.526C143.668 118.517 144.103 118.6 144.507 118.769C144.892 118.931 145.237 119.175 145.517 119.485C145.808 119.807 146.029 120.186 146.169 120.597C146.339 121.064 146.421 121.557 146.412 122.054C146.418 122.549 146.341 123.042 146.182 123.511C146.03 123.927 145.805 124.312 145.517 124.649C145.236 124.955 144.897 125.203 144.52 125.377C144.118 125.555 143.682 125.642 143.242 125.633C142.803 125.64 142.367 125.553 141.964 125.377C141.587 125.203 141.248 124.955 140.967 124.649C140.679 124.317 140.454 123.936 140.302 123.524C140.144 123.05 140.067 122.553 140.072 122.054C140.063 121.557 140.145 121.064 140.315 120.597C140.454 120.183 140.681 119.803 140.98 119.485C141.258 119.178 141.597 118.935 141.977 118.769C142.339 118.628 142.725 118.555 143.114 118.552L143.229 118.526ZM143.229 125.134C143.597 125.139 143.962 125.07 144.303 124.93C144.624 124.793 144.912 124.588 145.146 124.329C145.394 124.051 145.581 123.724 145.696 123.37C145.969 122.518 145.969 121.602 145.696 120.75C145.578 120.401 145.391 120.08 145.146 119.804C144.908 119.553 144.621 119.353 144.303 119.216C143.969 119.086 143.613 119.021 143.255 119.025C142.887 119.017 142.521 119.087 142.181 119.229C141.86 119.355 141.572 119.552 141.338 119.804C141.089 120.084 140.898 120.41 140.775 120.763C140.642 121.176 140.577 121.607 140.583 122.041C140.58 122.475 140.645 122.906 140.775 123.319C140.89 123.673 141.077 124 141.325 124.278C141.555 124.542 141.844 124.748 142.168 124.879C142.458 125.031 142.775 125.127 143.101 125.16L143.229 125.134ZM150.694 125.633C150.254 125.639 149.819 125.551 149.415 125.377C149.029 125.218 148.683 124.974 148.406 124.661C148.106 124.333 147.88 123.946 147.741 123.524C147.582 123.05 147.504 122.553 147.511 122.054C147.502 121.557 147.584 121.064 147.754 120.597C147.893 120.186 148.115 119.807 148.406 119.485C148.681 119.175 149.022 118.931 149.403 118.769C149.808 118.603 150.243 118.521 150.681 118.526C151.031 118.519 151.38 118.567 151.716 118.667C152.017 118.752 152.302 118.886 152.56 119.063C152.805 119.232 153.017 119.444 153.186 119.689C153.356 119.934 153.469 120.214 153.518 120.507H152.994C152.957 120.3 152.874 120.104 152.751 119.932C152.624 119.747 152.464 119.587 152.279 119.459C152.06 119.32 151.824 119.212 151.576 119.14C151.288 119.06 150.992 119.022 150.694 119.025C150.327 119.02 149.963 119.086 149.62 119.216C149.294 119.338 149.003 119.54 148.776 119.804C148.532 120.08 148.345 120.401 148.227 120.75C147.971 121.605 147.971 122.516 148.227 123.37C148.342 123.724 148.529 124.051 148.776 124.329C149.006 124.593 149.295 124.799 149.62 124.93C149.965 125.071 150.334 125.14 150.706 125.134C151.207 125.163 151.706 125.059 152.155 124.835C152.603 124.611 152.985 124.274 153.263 123.856V122.578H151.397V122.079H153.748V125.415H153.224L153.007 124.508C152.858 124.696 152.681 124.859 152.483 124.994C152.299 125.128 152.096 125.235 151.882 125.313C151.671 125.394 151.453 125.454 151.23 125.492C151.014 125.565 150.791 125.621 150.566 125.658L150.694 125.633ZM155.474 125.505V118.667H155.781V125.531L155.474 125.505Z" fill="#231F20" stroke="black" stroke-width="0.0816049" stroke-miterlimit="10"/>
<path fill-rule="evenodd" clip-rule="evenodd" d="M33.5191 109.145H38.7211C39.4596 109.159 40.1983 109.125 40.9323 109.043C41.5822 108.957 42.2131 108.763 42.7984 108.467C43.3202 108.183 43.7602 107.769 44.0766 107.266C44.4013 106.717 44.5652 106.088 44.5495 105.451C44.5679 104.695 44.3189 103.958 43.8465 103.368C43.3573 102.739 42.6744 102.29 41.9037 102.089C40.7329 101.806 39.5291 101.681 38.3249 101.719H33.5191V109.145ZM29.3906 112.788V87.8125H40.7534C44.7157 87.8125 48.4223 89.6147 48.4223 94.5611C48.4918 95.5995 48.2346 96.6335 47.6868 97.5183C47.139 98.4031 46.328 99.0942 45.3675 99.4948C48.1795 100.338 49.3681 102.498 49.3681 105.553C49.3681 111.19 45.5337 112.788 40.8301 112.788H29.3906ZM33.5191 97.846H38.1204C39.1996 97.8773 40.2791 97.7959 41.3413 97.6031C42.0913 97.4614 42.7789 97.0908 43.3097 96.5423C43.7526 96.0337 43.9856 95.3757 43.9616 94.7017C43.9529 94.0526 43.723 93.4258 43.3097 92.9251C42.8777 92.3656 42.2621 91.9763 41.5714 91.8259C40.3076 91.5898 39.022 91.4912 37.737 91.5319H33.5191V97.846Z" fill="#270E46"/>
<path fill-rule="evenodd" clip-rule="evenodd" d="M0.0390625 112.788V87.8125H7.22228L11.8364 107.483L16.4505 87.8125H23.6338V112.788L19.4414 112.609V91.3274L14.3032 112.788H11.8364H9.36957L4.21862 91.3274V112.609L0.0390625 112.788Z" fill="#270E46"/>
<path fill-rule="evenodd" clip-rule="evenodd" d="M141.022 112.788H144.856V107.074L147.412 104.428L151.95 112.788H157.165L150.544 101.527L156.475 94.689H151.95L144.843 102.038V87.8125H141.009L141.022 112.788ZM124.24 102.013C124.19 100.83 124.605 99.675 125.395 98.7939C126.186 97.9128 127.289 97.3754 128.47 97.2964C129.054 97.3251 129.626 97.4713 130.152 97.7261C130.678 97.981 131.147 98.3393 131.531 98.7796C131.915 99.2199 132.206 99.7331 132.388 100.289C132.569 100.844 132.636 101.431 132.586 102.013H124.24ZM128.304 113.516C130.069 113.484 131.785 112.93 133.236 111.925C134.687 110.92 135.808 109.508 136.459 107.867H132.266C131.602 109.733 130.094 110.129 128.189 110.091C126.285 110.052 124.444 108.173 124.227 104.595H136.778C136.944 99.2136 134.401 94.0243 128.47 94.0243C122.91 94.0243 120.162 98.6896 120.162 103.994C120.162 108.876 123.076 113.503 128.304 113.503V113.516ZM108.097 97.0535H110.653V107.483C110.561 108.71 110.708 109.943 111.087 111.113C111.41 111.732 111.933 112.222 112.57 112.506C113.515 112.903 114.537 113.083 115.561 113.03C116.318 113.017 117.072 112.927 117.81 112.762L118.015 110.052C117.376 110.129 116.596 110.18 116.213 110.18C115.775 110.211 115.337 110.136 114.935 109.963C114.676 109.831 114.465 109.621 114.334 109.362C114.158 108.814 114.093 108.236 114.142 107.662V97.0535H117.683V94.689H114.27V89.0907H110.717V94.689H108.16L108.097 97.0535ZM100.428 108.685C100.011 109.202 99.4832 109.62 98.8838 109.907C98.2844 110.193 97.6283 110.342 96.9638 110.342C96.2993 110.342 95.6432 110.193 95.0438 109.907C94.4444 109.62 93.9169 109.202 93.5 108.685C92.4773 107.247 91.989 105.498 92.1196 103.738C91.9995 101.98 92.4967 100.235 93.5256 98.8046C93.9402 98.2861 94.4678 97.8692 95.0681 97.5856C95.6684 97.3021 96.3255 97.1595 96.9894 97.1686C97.6527 97.1591 98.3093 97.3029 98.9079 97.5889C99.5065 97.8749 100.031 98.2954 100.44 98.8174C101.463 100.211 101.957 101.924 101.834 103.649C101.977 105.437 101.488 107.219 100.453 108.685H100.428ZM90.4324 110.743C91.3064 111.567 92.3373 112.207 93.4638 112.624C94.5904 113.041 95.7894 113.227 96.9894 113.171C98.6088 113.2 100.211 112.831 101.655 112.097C103.023 111.409 104.153 110.328 104.901 108.991C105.725 107.285 106.107 105.4 106.013 103.508C106.077 102.27 105.883 101.031 105.443 99.8716C105.003 98.712 104.327 97.6566 103.457 96.7723C102.597 95.9522 101.582 95.3117 100.471 94.8882C99.3609 94.4646 98.1772 94.2665 96.9894 94.3055C94.7965 94.2393 92.6507 94.95 90.9309 96.3122C88.937 97.9227 87.9528 100.39 87.9528 103.738C87.8693 105.015 88.0485 106.295 88.4794 107.5C88.9103 108.705 89.5837 109.808 90.458 110.743H90.4324ZM83.4665 112.788V94.689H79.2486V112.788H83.4665ZM83.4665 91.3019V87.8125H79.2486V91.3019H83.4665ZM69.3429 107.266C69.0266 107.769 68.5865 108.183 68.0648 108.467C67.4794 108.763 66.8486 108.957 66.1987 109.043C65.4647 109.125 64.726 109.159 63.9875 109.145H58.8365V101.757H63.604C64.804 101.719 66.0036 101.844 67.1701 102.128C67.9407 102.328 68.6236 102.778 69.1129 103.406C69.5851 103.997 69.838 104.733 69.8286 105.489C69.8326 106.115 69.6646 106.729 69.3429 107.266ZM68.6016 96.5423C68.0743 97.0885 67.3914 97.4589 66.646 97.6031C65.5838 97.7965 64.5043 97.8779 63.4251 97.846H58.8365V91.4552H63.0161C64.3011 91.414 65.5868 91.5126 66.8505 91.7492C67.5684 91.9146 68.2033 92.3318 68.64 92.9251C69.0478 93.451 69.2641 94.1002 69.2535 94.7656C69.2556 95.4168 69.0244 96.0471 68.6016 96.5423ZM54.6953 87.8125V112.788H66.1987C70.9151 112.788 74.7495 111.19 74.7495 105.553C74.7495 102.498 73.5608 100.338 70.7361 99.4948C71.6977 99.0958 72.5098 98.405 73.0579 97.5198C73.606 96.6347 73.8624 95.5998 73.7909 94.5611C73.7014 89.6275 70.0204 87.8125 66.0325 87.8125H54.6953Z" fill="url(#paint3_linear_2651_901)"/>
<mask id="mask3_2651_901" style="mask-type:luminance" maskUnits="userSpaceOnUse" x="54" y="87" width="104" height="27">
<path d="M141.022 112.788H144.856V107.074L147.412 104.428L151.95 112.788H157.165L150.544 101.527L156.475 94.689H151.95L144.843 102.038V87.8125H141.009L141.022 112.788ZM124.24 102.013C124.19 100.83 124.605 99.675 125.395 98.7939C126.186 97.9128 127.289 97.3754 128.47 97.2964C129.054 97.3251 129.626 97.4713 130.152 97.7261C130.678 97.981 131.147 98.3393 131.531 98.7796C131.915 99.2199 132.206 99.7331 132.388 100.289C132.569 100.844 132.636 101.431 132.586 102.013H124.24ZM128.304 113.516C130.069 113.484 131.785 112.93 133.236 111.925C134.687 110.92 135.808 109.508 136.459 107.867H132.266C131.602 109.733 130.094 110.129 128.189 110.091C126.285 110.052 124.444 108.173 124.227 104.595H136.778C136.944 99.2136 134.401 94.0243 128.47 94.0243C122.91 94.0243 120.162 98.6896 120.162 103.994C120.162 108.876 123.076 113.503 128.304 113.503V113.516ZM108.097 97.0535H110.653V107.483C110.561 108.71 110.708 109.943 111.087 111.113C111.41 111.732 111.933 112.222 112.57 112.506C113.515 112.903 114.537 113.083 115.561 113.03C116.318 113.017 117.072 112.927 117.81 112.762L118.015 110.052C117.376 110.129 116.596 110.18 116.213 110.18C115.775 110.211 115.337 110.136 114.935 109.963C114.676 109.831 114.465 109.621 114.334 109.362C114.158 108.814 114.093 108.236 114.142 107.662V97.0535H117.683V94.689H114.27V89.0907H110.717V94.689H108.16L108.097 97.0535ZM100.428 108.685C100.011 109.202 99.4832 109.62 98.8838 109.907C98.2844 110.193 97.6283 110.342 96.9638 110.342C96.2993 110.342 95.6432 110.193 95.0438 109.907C94.4444 109.62 93.9169 109.202 93.5 108.685C92.4773 107.247 91.989 105.498 92.1196 103.738C91.9995 101.98 92.4967 100.235 93.5256 98.8046C93.9402 98.2861 94.4678 97.8692 95.0681 97.5856C95.6684 97.3021 96.3255 97.1595 96.9894 97.1686C97.6527 97.1591 98.3093 97.3029 98.9079 97.5889C99.5065 97.8749 100.031 98.2954 100.44 98.8174C101.463 100.211 101.957 101.924 101.834 103.649C101.977 105.437 101.488 107.219 100.453 108.685H100.428ZM90.4324 110.743C91.3064 111.567 92.3373 112.207 93.4638 112.624C94.5904 113.041 95.7894 113.227 96.9894 113.171C98.6088 113.2 100.211 112.831 101.655 112.097C103.023 111.409 104.153 110.328 104.901 108.991C105.725 107.285 106.107 105.4 106.013 103.508C106.077 102.27 105.883 101.031 105.443 99.8716C105.003 98.712 104.327 97.6566 103.457 96.7723C102.597 95.9522 101.582 95.3117 100.471 94.8882C99.3609 94.4646 98.1772 94.2665 96.9894 94.3055C94.7965 94.2393 92.6507 94.95 90.9309 96.3122C88.937 97.9227 87.9528 100.39 87.9528 103.738C87.8693 105.015 88.0485 106.295 88.4794 107.5C88.9103 108.705 89.5837 109.808 90.458 110.743H90.4324ZM83.4665 112.788V94.689H79.2486V112.788H83.4665ZM83.4665 91.3019V87.8125H79.2486V91.3019H83.4665ZM69.3429 107.266C69.0266 107.769 68.5865 108.183 68.0648 108.467C67.4794 108.763 66.8486 108.957 66.1987 109.043C65.4647 109.125 64.726 109.159 63.9875 109.145H58.8365V101.757H63.604C64.804 101.719 66.0036 101.844 67.1701 102.128C67.9407 102.328 68.6236 102.778 69.1129 103.406C69.5851 103.997 69.838 104.733 69.8286 105.489C69.8326 106.115 69.6646 106.729 69.3429 107.266ZM68.6016 96.5423C68.0743 97.0885 67.3914 97.4589 66.646 97.6031C65.5838 97.7965 64.5043 97.8779 63.4251 97.846H58.8365V91.4552H63.0161C64.3011 91.414 65.5868 91.5126 66.8505 91.7492C67.5684 91.9146 68.2033 92.3318 68.64 92.9251C69.0478 93.451 69.2641 94.1002 69.2535 94.7656C69.2556 95.4168 69.0244 96.0471 68.6016 96.5423ZM54.6953 87.8125V112.788H66.1987C70.9151 112.788 74.7495 111.19 74.7495 105.553C74.7495 102.498 73.5608 100.338 70.7361 99.4948C71.6977 99.0958 72.5098 98.405 73.0579 97.5198C73.606 96.6347 73.8624 95.5998 73.7909 94.5611C73.7014 89.6275 70.0204 87.8125 66.0325 87.8125H54.6953Z" fill="white"/>
</mask>
<g mask="url(#mask3_2651_901)">
<path d="M157.165 87.8125H54.6953V113.503H157.165V87.8125Z" fill="url(#paint4_linear_2651_901)"/>
</g>
<defs>
<radialGradient id="paint0_radial_2651_901" cx="0" cy="0" r="1" gradientUnits="userSpaceOnUse" gradientTransform="translate(105.928 48.4066) scale(16.654 16.654)">
<stop stop-color="#AF65A9"/>
<stop offset="0.56" stop-color="#5F2D88"/>
</radialGradient>
<radialGradient id="paint1_radial_2651_901" cx="0" cy="0" r="1" gradientUnits="userSpaceOnUse" gradientTransform="translate(100.202 15.3198) scale(26.8033 37.5247)">
<stop stop-color="#AB4599"/>
<stop offset="0.75" stop-color="#5F2D88"/>
</radialGradient>
<radialGradient id="paint2_radial_2651_901" cx="0" cy="0" r="1" gradientUnits="userSpaceOnUse" gradientTransform="translate(47.1812 26.8264) scale(14.1811 14.1811)">
<stop stop-color="#AF65A9"/>
<stop offset="0.22" stop-color="#A35DA4"/>
<stop offset="0.62" stop-color="#844797"/>
<stop offset="1" stop-color="#5F2D88"/>
</radialGradient>
<linearGradient id="paint3_linear_2651_901" x1="54.6953" y1="100.658" x2="157.165" y2="100.658" gradientUnits="userSpaceOnUse">
<stop stop-color="#7E2A8A"/>
<stop offset="1" stop-color="#A53793"/>
</linearGradient>
<linearGradient id="paint4_linear_2651_901" x1="83.147" y1="93.8454" x2="177.475" y2="122.029" gradientUnits="userSpaceOnUse">
<stop stop-color="#7E2A8A"/>
<stop offset="0.61" stop-color="#A53793"/>
</linearGradient>
</defs>
</svg>
