<svg width="512" height="126" viewBox="0 0 512 126" fill="none" xmlns="http://www.w3.org/2000/svg">
<mask id="mask0_2419_1300" style="mask-type:luminance" maskUnits="userSpaceOnUse" x="83" y="66" width="28" height="27">
<path d="M96.919 92.8525C99.5775 92.9118 102.193 92.1777 104.433 90.7439C106.672 89.3101 108.434 87.2416 109.492 84.8024C110.551 82.3631 110.859 79.6638 110.377 77.0487C109.895 74.4337 108.644 72.0216 106.785 70.1203C104.927 68.2189 102.543 66.9146 99.9397 66.3736C97.3363 65.8326 94.6306 66.0796 92.1681 67.083C89.7056 68.0864 87.5979 69.8008 86.114 72.0073C84.63 74.2138 83.8371 76.8124 83.8365 79.4715C83.8054 82.9782 85.1643 86.3546 87.616 88.8622C90.0676 91.3697 93.4125 92.8044 96.919 92.8525Z" fill="white"/>
</mask>
<g mask="url(#mask0_2419_1300)">
<path d="M121.86 56.4297H63.7598V100.005H121.86V56.4297Z" fill="white"/>
</g>
<mask id="mask1_2419_1300" style="mask-type:luminance" maskUnits="userSpaceOnUse" x="25" y="0" width="92" height="126">
<path d="M54.1521 125.702C61.7134 125.606 68.9277 122.514 74.2122 117.105C79.4967 111.697 82.4198 104.412 82.3402 96.8509C82.3682 92.4374 81.3879 88.0759 79.4741 84.0988C77.5603 80.1218 74.7635 76.6344 71.2971 73.9025C73.7345 63.2739 82.9039 48.8649 93.1511 44.7527C93.6486 44.7527 94.146 44.7527 94.66 44.7527C100.522 44.6784 106.117 42.2849 110.218 38.096C114.32 33.907 116.596 28.2638 116.547 22.4012C116.609 16.5244 114.335 10.8634 110.224 6.66278C106.114 2.46214 100.504 0.065611 94.6269 0C91.1704 0.00664997 87.7653 0.837464 84.6941 2.42351C81.6229 4.00955 78.9743 6.30509 76.9679 9.11967C75.299 11.4168 74.0834 14.0111 73.3863 16.7636C67.9808 23.1142 57.4849 19.8975 53.7044 13.7956C52.8523 12.3602 51.7209 11.1102 50.3774 10.1197C49.0338 9.12908 47.5052 8.41798 45.882 8.02842C44.2588 7.63885 42.574 7.57873 40.9271 7.85161C39.2803 8.12448 37.7049 8.72482 36.2941 9.61711C33.4273 11.4639 31.3948 14.3571 30.6298 17.6804C29.8648 21.0037 30.4277 24.4944 32.1986 27.4088C33.0507 28.8441 34.182 30.0941 35.5256 31.0847C36.8692 32.0753 38.3978 32.7863 40.021 33.1759C41.6442 33.5655 43.329 33.6256 44.9758 33.3527C46.6227 33.0798 48.1981 32.4795 49.6089 31.5872C50.801 30.8392 51.8601 29.8978 52.7427 28.8016C60.1545 23.6117 70.5012 24.9713 75.3097 33.0464C80.0851 42.6801 70.1862 62.7599 62.8407 69.3924C60.0373 68.4657 57.1046 67.9899 54.1521 67.983C46.5003 67.983 39.1618 71.0227 33.7511 76.4334C28.3405 81.844 25.3008 89.1825 25.3008 96.8343C25.3008 104.486 28.3405 111.825 33.7511 117.235C39.1618 122.646 46.5003 125.686 54.1521 125.686" fill="white"/>
</mask>
<g mask="url(#mask1_2419_1300)">
<path d="M83.8341 55.8203H25.0371V130.502H83.8341V55.8203Z" fill="white"/>
<path d="M43.6556 6.39062H28.832V33.7828H43.6556V6.39062Z" fill="white"/>
<path d="M144.717 -10.5234H38.4648V58.0399H144.717V-10.5234Z" fill="white"/>
</g>
<mask id="mask2_2419_1300" style="mask-type:luminance" maskUnits="userSpaceOnUse" x="0" y="26" width="67" height="34">
<path d="M17.2279 59.0142C20.0314 59.0379 22.7998 58.3894 25.3011 57.1229C27.8023 55.8564 29.9636 54.0088 31.6038 51.735C38.9824 43.3118 46.7425 42.1677 52.0982 46.4291L52.7449 46.9762C53.0102 47.1586 53.2755 47.341 53.5573 47.5068C55.4594 48.628 57.7163 48.9845 59.8713 48.5042C62.0262 48.024 63.9182 46.7428 65.1642 44.9202C65.7432 44.0306 66.1328 43.0313 66.3086 41.9846C66.4844 40.9378 66.4426 39.8661 66.1859 38.8362C65.9292 37.8063 65.4631 36.8403 64.8166 35.9985C64.1701 35.1567 63.3571 34.4571 62.4283 33.9434C60.61 32.8738 58.4657 32.4994 56.3926 32.8896C54.3194 33.2799 52.458 34.4083 51.1531 36.0658C49.4949 38.0887 44.106 39.6308 39.712 38.4701C35.8818 37.4752 33.0795 34.5403 31.1064 33.247C29.442 31.1509 27.32 29.4635 24.903 28.3139C22.4859 27.1643 19.8379 26.583 17.1616 26.6145C7.71027 26.5316 0 33.8439 0 42.7978C0 51.7516 7.71027 59.0142 17.2279 59.0142Z" fill="white"/>
</mask>
<g mask="url(#mask2_2419_1300)">
<path d="M71.5295 18.2305H-10.2988V67.3772H71.5295V18.2305Z" fill="white"/>
</g>
<path fill-rule="evenodd" clip-rule="evenodd" d="M155.779 86.4063H161.314C162.032 86.4053 162.75 86.4635 163.458 86.5801C164.099 86.6844 164.711 86.9213 165.255 87.2756C165.781 87.5886 166.212 88.0395 166.501 88.5796C166.923 89.5025 167.061 90.5305 166.896 91.532C166.73 92.5334 166.27 93.4628 165.574 94.2012C164.382 95.0643 162.927 95.4845 161.459 95.3893H156.88V101.967H155.779V86.4063ZM156.88 94.2592H161.488C162.152 94.2694 162.815 94.1915 163.458 94.0274C163.958 93.9128 164.424 93.6847 164.82 93.3609C165.163 93.0771 165.423 92.7069 165.574 92.2887C165.73 91.8018 165.808 91.2932 165.806 90.7819C165.829 90.2016 165.71 89.6243 165.458 89.1012C165.242 88.6868 164.909 88.3445 164.502 88.1159C164.069 87.8799 163.598 87.7229 163.111 87.6523C162.551 87.6082 161.989 87.6082 161.43 87.6523H156.88V94.2592ZM180.671 87.5364H175.339V102.025H174.238V87.5364H168.935V86.4063H180.671V87.5364Z" fill="white" stroke="white" stroke-width="0.869326" stroke-miterlimit="10"/>
<path fill-rule="evenodd" clip-rule="evenodd" d="M204.897 101.972H203.795V88.2653L198.319 101.972H197.131L191.654 88.2653V101.972H190.553V86.4108H192.175L197.71 100.436L203.303 86.2948H204.897V101.972ZM214.575 102.261C213.783 102.282 212.992 102.184 212.228 101.972C211.653 101.812 211.112 101.547 210.634 101.189C210.222 100.875 209.877 100.481 209.62 100.03C209.373 99.5808 209.178 99.1043 209.04 98.6103C208.921 98.0959 208.843 97.5725 208.809 97.0455C208.78 96.5146 208.78 95.9826 208.809 95.4517V86.4108H209.939V95.4228C209.913 96.397 210.01 97.3706 210.228 98.3205C210.393 98.9662 210.711 99.5626 211.156 100.059C211.561 100.47 212.073 100.761 212.634 100.9C213.948 101.21 215.318 101.21 216.632 100.9C217.198 100.773 217.713 100.481 218.11 100.059C218.551 99.5533 218.86 98.946 219.009 98.2915C219.244 97.3443 219.351 96.3696 219.327 95.3938V86.4108H220.429V95.4517C220.441 96.424 220.353 97.395 220.168 98.3495C219.975 99.1181 219.608 99.832 219.096 100.436C218.628 101.034 218.007 101.495 217.299 101.769C216.43 102.104 215.506 102.271 214.575 102.261ZM230.86 102.261C229.865 102.275 228.877 102.077 227.963 101.682C227.086 101.322 226.303 100.767 225.673 100.059C224.995 99.3156 224.481 98.4366 224.167 97.4802C223.806 96.4067 223.63 95.28 223.645 94.1477C223.625 93.0222 223.811 91.9024 224.196 90.8443C224.512 89.9123 225.015 89.0545 225.673 88.3233C226.298 87.6218 227.07 87.0676 227.934 86.7005C228.853 86.3249 229.838 86.1377 230.831 86.15C231.626 86.1342 232.417 86.2417 233.179 86.4687C233.861 86.6612 234.507 86.9647 235.091 87.367C235.642 87.7692 236.114 88.2703 236.482 88.8449C236.867 89.3999 237.124 90.0332 237.236 90.6994H236.047C235.974 90.2311 235.795 89.7854 235.526 89.3954C235.218 88.9817 234.847 88.6197 234.425 88.3233C233.93 88.0076 233.394 87.7637 232.831 87.5988C232.18 87.4191 231.507 87.3313 230.831 87.338C230 87.3284 229.174 87.4759 228.397 87.7727C227.657 88.048 226.999 88.5067 226.485 89.1057C225.92 89.7222 225.495 90.4537 225.239 91.25C224.66 93.1878 224.66 95.2526 225.239 97.1904C225.5 97.9931 225.924 98.733 226.485 99.3637C227.006 99.9619 227.662 100.428 228.397 100.726C229.179 101.045 230.016 101.203 230.86 101.189C231.995 101.253 233.127 101.02 234.144 100.511C235.16 100.003 236.026 99.2378 236.656 98.2915V95.3938H232.28V94.2637H237.612V101.827H236.975L236.482 99.9143C236.148 100.333 235.758 100.704 235.323 101.015C234.898 101.307 234.441 101.55 233.961 101.74C233.472 101.919 232.967 102.055 232.454 102.146C231.927 102.228 231.394 102.267 230.86 102.261ZM241.698 101.972V86.4108H242.799V101.972H241.698Z" fill="white" stroke="white" stroke-width="0.869326" stroke-miterlimit="10"/>
<path fill-rule="evenodd" clip-rule="evenodd" d="M265.461 97.5382C265.502 98.1491 265.393 98.7606 265.146 99.3207C264.899 99.8808 264.52 100.373 264.041 100.755C262.839 101.591 261.387 101.99 259.927 101.885H254.508V86.4108H260.043C261.273 86.3315 262.498 86.6352 263.549 87.2801C263.974 87.6258 264.308 88.071 264.52 88.5765C264.733 89.082 264.817 89.632 264.766 90.1779C264.795 90.554 264.795 90.9318 264.766 91.308C264.692 91.6857 264.555 92.0482 264.36 92.3802C264.168 92.7244 263.912 93.0292 263.607 93.2785C263.238 93.5529 262.812 93.7411 262.361 93.829C262.961 93.8618 263.545 94.0302 264.07 94.3217C264.469 94.5338 264.808 94.8427 265.056 95.22C265.291 95.5828 265.457 95.9854 265.548 96.408C265.541 96.7861 265.512 97.1634 265.461 97.5382ZM255.522 100.755H259.927C262.824 100.755 264.273 99.6825 264.273 97.5382C264.281 97.0359 264.202 96.5361 264.041 96.0603C263.893 95.6563 263.619 95.3107 263.259 95.0751C262.836 94.776 262.35 94.5777 261.839 94.4955C261.116 94.3408 260.376 94.2728 259.637 94.2927H255.638L255.522 100.755ZM255.522 93.1626H259.666C260.674 93.2089 261.677 92.9784 262.564 92.4961C262.857 92.2123 263.091 91.8724 263.25 91.4965C263.41 91.1207 263.492 90.7166 263.492 90.3083C263.492 89.9 263.41 89.4959 263.25 89.12C263.091 88.7442 262.857 88.4042 262.564 88.1205C261.695 87.5896 260.681 87.3463 259.666 87.425H255.638L255.522 93.1626ZM279.834 101.856H268.939V86.4108H279.573V87.5409H270.04V93.3364H278.965V94.4666H270.04V100.871H279.95L279.834 101.856ZM295.482 101.856H294.439L292.903 97.741C292.762 97.3547 292.597 96.9773 292.41 96.6109C292.228 96.2818 292.015 95.9713 291.773 95.6836C291.532 95.4319 291.247 95.2257 290.933 95.0751C290.587 94.9177 290.211 94.8385 289.831 94.8433H284.442V101.856H283.34V86.4108H290.208C290.83 86.4099 291.451 86.4681 292.063 86.5847C292.631 86.6876 293.174 86.9044 293.656 87.2222C294.133 87.535 294.522 87.9638 294.787 88.4682C295.084 89.1117 295.223 89.8172 295.192 90.5256C295.195 91.0235 295.137 91.5198 295.018 92.0035C294.885 92.4349 294.69 92.8448 294.439 93.2205C294.168 93.5774 293.834 93.8819 293.454 94.1188C293.033 94.3763 292.573 94.5624 292.092 94.6694C292.342 94.8603 292.575 95.0737 292.787 95.3069C292.977 95.5195 293.142 95.7528 293.28 96.0024C293.423 96.2445 293.548 96.4962 293.656 96.7558C293.656 97.0455 293.888 97.3933 294.004 97.741L295.482 101.856ZM284.326 93.7131H289.629C290.28 93.7223 290.931 93.664 291.57 93.5393C292.046 93.4455 292.499 93.2583 292.903 92.9887C293.256 92.7276 293.52 92.363 293.656 91.9455C293.845 91.456 293.933 90.9339 293.917 90.4097C293.957 89.9734 293.884 89.5343 293.707 89.1338C293.529 88.7332 293.253 88.3845 292.903 88.1205C292.028 87.6053 291.019 87.3632 290.005 87.425H284.442L284.326 93.7131ZM310.637 101.856H309.13L303.132 93.4523L300.031 96.524V101.972H298.93V86.4108H300.031V95.1041L308.725 86.4108H310.261L304.001 92.641L310.637 101.856ZM325.329 101.856H323.996L322.112 96.8427H314.723C314.462 97.6541 314.144 98.4944 313.825 99.3637C313.506 100.233 313.216 101.073 312.897 101.856H311.825C312.318 100.523 312.811 99.1899 313.303 97.9149C313.796 96.6399 314.259 95.3359 314.752 94.0609L316.201 90.2358L317.621 86.4108H319.186L325.329 101.856ZM321.765 96.0603L318.287 87.512L314.955 96.0603H321.765ZM339.354 101.856H338.224V94.2347H328.951V101.972H327.85V86.4108H328.951V93.1046H338.34V86.4108H339.47L339.354 101.856Z" fill="white" stroke="white" stroke-width="0.869326" stroke-miterlimit="10"/>
<path fill-rule="evenodd" clip-rule="evenodd" d="M361.085 97.5368C361.121 98.1514 361.011 98.7656 360.764 99.3295C360.517 99.8935 360.141 100.391 359.666 100.782C358.463 101.591 357.026 101.979 355.58 101.883H349.871V86.4095H355.29C356.52 86.334 357.744 86.6374 358.796 87.2788C359.224 87.6227 359.559 88.0677 359.771 88.5737C359.984 89.0796 360.067 89.6305 360.013 90.1765C360.042 90.5527 360.042 90.9305 360.013 91.3067C359.939 91.6843 359.802 92.0468 359.608 92.3788C359.415 92.7231 359.16 93.0278 358.854 93.2771C358.485 93.5516 358.059 93.7398 357.608 93.8277C358.208 93.8605 358.792 94.0289 359.318 94.3203C359.716 94.5325 360.055 94.8414 360.303 95.2186C360.538 95.5815 360.705 95.9841 360.796 96.4067C360.914 96.7774 361.011 97.1548 361.085 97.5368ZM351.117 100.753H355.29C358.188 100.753 359.608 99.6812 359.608 97.5368C359.622 97.0364 359.553 96.5371 359.405 96.059C359.257 95.6549 358.982 95.3094 358.622 95.0737C358.199 94.7746 357.714 94.5764 357.202 94.4942C356.479 94.3411 355.74 94.273 355 94.2914H350.972L351.117 100.753ZM351.117 93.1612H355.232C356.241 93.2168 357.246 92.9857 358.13 92.4948C358.476 92.2358 358.749 91.8913 358.921 91.495C359.094 91.0987 359.161 90.6643 359.115 90.2345C359.141 89.8362 359.074 89.4373 358.918 89.0699C358.762 88.7025 358.521 88.3768 358.217 88.1191C357.347 87.5927 356.331 87.3592 355.319 87.4527H350.972L351.117 93.1612ZM364.939 101.854V86.4095H366.041V101.97L364.939 101.854ZM376.907 86.0328C377.901 86.0123 378.888 86.1998 379.805 86.5833C380.674 86.9572 381.454 87.5102 382.094 88.2061C382.753 88.9373 383.256 89.7951 383.572 90.7271C383.942 91.7889 384.128 92.9061 384.123 94.0306C384.113 95.2355 383.867 96.4269 383.398 97.5368C383.075 98.4833 382.574 99.3589 381.92 100.116C381.283 100.81 380.515 101.372 379.66 101.768C378.748 102.171 377.759 102.368 376.762 102.347C375.766 102.364 374.778 102.166 373.864 101.768C373.005 101.379 372.235 100.817 371.604 100.116C370.928 99.3651 370.406 98.4888 370.068 97.5368C369.71 96.4628 369.534 95.3365 369.547 94.2044C369.526 93.0788 369.713 91.9591 370.097 90.901C370.414 89.969 370.917 89.1112 371.575 88.3799C372.21 87.6779 372.992 87.1239 373.864 86.7572C374.778 86.3554 375.765 86.1482 376.762 86.1487L376.907 86.0328ZM376.907 101.014C377.741 101.026 378.57 100.868 379.341 100.551C380.069 100.239 380.722 99.7748 381.254 99.1886C381.815 98.5579 382.239 97.8179 382.5 97.0152C383.079 95.0774 383.079 93.0127 382.5 91.0749C382.222 90.2821 381.789 89.553 381.225 88.9305C380.699 88.3568 380.057 87.9023 379.341 87.5976C378.574 87.301 377.758 87.1535 376.936 87.1629C376.111 87.1443 375.29 87.3024 374.531 87.6265C373.799 87.9195 373.138 88.3639 372.589 88.9305C372.034 89.5654 371.611 90.3041 371.343 91.1038C371.031 92.0378 370.874 93.0168 370.88 94.0016C370.869 94.9868 371.026 95.9667 371.343 96.8993C371.595 97.706 372.021 98.4477 372.589 99.0727C373.106 99.664 373.75 100.13 374.473 100.435C375.175 100.81 375.942 101.046 376.733 101.13L376.907 101.014ZM397.771 87.4237H392.294V101.912H391.164V87.4237H385.89V86.2936H397.481L397.771 87.4237ZM411.535 101.912H400.379V86.4095H411.014V87.5396H401.48V93.3351H410.347V94.4652H401.48V100.869H411.361L411.535 101.912ZM426.748 101.912H425.242L419.04 93.451L415.969 96.5226V101.97H414.868V86.4095H415.969V95.1027L424.662 86.4095H426.198L419.939 92.6396L426.748 101.912ZM441.237 101.912H439.788L430.458 87.6845V101.912H429.356V86.4095H430.631L439.846 100.608V86.4095H440.976L441.237 101.912ZM451.524 86.0907C452.518 86.0744 453.504 86.2618 454.422 86.6413C455.286 87.0083 456.058 87.5626 456.682 88.264C457.36 88.9864 457.874 89.8463 458.189 90.7851C458.924 92.926 458.924 95.251 458.189 97.392C457.866 98.3385 457.365 99.214 456.711 99.971C456.074 100.666 455.306 101.227 454.451 101.623C453.538 102.021 452.549 102.219 451.553 102.202C450.557 102.223 449.567 102.026 448.655 101.623C447.791 101.228 447.014 100.666 446.366 99.971C445.713 99.2248 445.211 98.3587 444.888 97.4209C444.53 96.3469 444.354 95.2206 444.367 94.0885C444.352 92.9657 444.528 91.8486 444.888 90.7851C445.226 89.8568 445.738 89.0013 446.395 88.264C447.03 87.562 447.812 87.008 448.684 86.6413C449.506 86.3188 450.381 86.1518 451.263 86.1487L451.524 86.0907ZM451.524 101.072C452.35 101.091 453.17 100.933 453.929 100.608C454.665 100.311 455.32 99.8447 455.842 99.2465C456.421 98.6244 456.856 97.8824 457.117 97.0732C457.696 95.1354 457.696 93.0706 457.117 91.1328C456.839 90.3401 456.406 89.6109 455.842 88.9885C455.316 88.4148 454.674 87.9602 453.958 87.6555C453.192 87.3589 452.375 87.2114 451.553 87.2208C450.719 87.2093 449.891 87.367 449.119 87.6845C448.4 87.9861 447.75 88.4296 447.207 88.9885C446.652 89.6234 446.228 90.3621 445.961 91.1618C445.648 92.0958 445.492 93.0747 445.497 94.0595C445.489 95.0422 445.636 96.0201 445.932 96.9573C446.204 97.7549 446.627 98.4927 447.178 99.1306C447.71 99.7168 448.362 100.181 449.09 100.493C449.769 100.837 450.506 101.053 451.263 101.13L451.524 101.072ZM470.939 101.912H461.956V86.4095H463.086V100.898H470.939V101.912ZM480.415 86.0907C481.409 86.0702 482.396 86.2578 483.313 86.6413C484.185 87.008 484.967 87.562 485.602 88.264C486.261 88.9953 486.763 89.8531 487.08 90.7851C487.464 91.8432 487.651 92.9629 487.63 94.0885C487.645 95.2113 487.469 96.3284 487.109 97.392C486.764 98.3347 486.254 99.2082 485.602 99.971C484.965 100.666 484.197 101.227 483.342 101.623C482.43 102.026 481.44 102.223 480.444 102.202C479.448 102.219 478.459 102.021 477.546 101.623C476.691 101.227 475.923 100.666 475.286 99.971C474.634 99.2187 474.123 98.3548 473.779 97.4209C473.421 96.3469 473.245 95.2206 473.257 94.0885C473.237 92.9629 473.424 91.8432 473.808 90.7851C474.123 89.8463 474.637 88.9864 475.315 88.264C475.945 87.5695 476.715 87.0164 477.575 86.6413C478.398 86.322 479.272 86.1551 480.154 86.1487L480.415 86.0907ZM480.415 101.072C481.249 101.084 482.077 100.926 482.849 100.608C483.577 100.297 484.229 99.8327 484.761 99.2465C485.322 98.6158 485.747 97.8759 486.007 97.0732C486.626 95.1414 486.626 93.0646 486.007 91.1328C485.74 90.3418 485.316 89.6125 484.761 88.9885C484.221 88.4192 483.57 87.9657 482.849 87.6555C482.092 87.3591 481.285 87.2115 480.473 87.2208C479.638 87.2034 478.809 87.3614 478.039 87.6845C477.312 87.9704 476.658 88.4161 476.126 88.9885C475.562 89.6218 475.129 90.3604 474.851 91.1618C474.549 92.0975 474.402 93.0764 474.416 94.0595C474.409 95.0422 474.555 96.0201 474.851 96.9573C475.112 97.76 475.536 98.4999 476.097 99.1306C476.619 99.7288 477.274 100.195 478.01 100.493C478.667 100.839 479.386 101.055 480.125 101.13L480.415 101.072ZM497.338 102.202C496.342 102.215 495.354 102.018 494.44 101.623C493.563 101.263 492.78 100.708 492.151 99.9999C491.472 99.2563 490.958 98.3774 490.644 97.4209C490.284 96.3474 490.107 95.2208 490.122 94.0885C490.102 92.9629 490.288 91.8432 490.673 90.7851C490.989 89.8531 491.492 88.9953 492.151 88.264C492.775 87.5626 493.547 87.0083 494.411 86.6413C495.33 86.2657 496.316 86.0784 497.309 86.0907C498.103 86.0749 498.895 86.1825 499.656 86.4095C500.338 86.6019 500.985 86.9054 501.568 87.3078C502.125 87.69 502.606 88.1713 502.988 88.7277C503.373 89.2827 503.63 89.916 503.742 90.5822H502.554C502.469 90.1121 502.281 89.6666 502.003 89.2782C501.714 88.8584 501.351 88.495 500.931 88.2061C500.437 87.8904 499.9 87.6465 499.337 87.4816C498.686 87.3019 498.013 87.2141 497.338 87.2208C496.506 87.2113 495.68 87.3587 494.904 87.6555C494.164 87.9308 493.505 88.3895 492.991 88.9885C492.436 89.6125 492.012 90.3418 491.745 91.1328C491.166 93.0706 491.166 95.1354 491.745 97.0732C492.006 97.8759 492.43 98.6158 492.991 99.2465C493.512 99.8447 494.168 100.311 494.904 100.608C495.685 100.928 496.523 101.086 497.367 101.072C498.501 101.136 499.633 100.902 500.65 100.394C501.666 99.8858 502.533 99.1206 503.162 98.1743V95.2766H498.931V94.1465H504.263V101.71H503.075L502.583 99.6522C502.245 100.078 501.844 100.449 501.395 100.753C500.976 101.057 500.518 101.301 500.033 101.478C499.554 101.661 499.059 101.796 498.555 101.883C498.063 102.05 497.56 102.176 497.048 102.26L497.338 102.202ZM508.175 101.912V86.4095H508.871V101.97L508.175 101.912Z" fill="white" stroke="white" stroke-width="0.869326" stroke-miterlimit="10"/>
<path fill-rule="evenodd" clip-rule="evenodd" d="M231.676 64.7619H243.47C245.144 64.7946 246.819 64.7172 248.483 64.5301C249.957 64.3359 251.387 63.8951 252.714 63.2261C253.897 62.5808 254.894 61.6429 255.612 60.5022C256.348 59.2583 256.719 57.8324 256.684 56.3874C256.725 54.6744 256.161 53.0016 255.09 51.6641C253.981 50.2397 252.433 49.2211 250.685 48.7663C248.031 48.1226 245.302 47.8399 242.572 47.926H231.676V64.7619ZM222.316 73.0205V16.3984H248.077C257.06 16.3984 265.464 20.4843 265.464 31.6986C265.622 34.0526 265.038 36.3969 263.796 38.4028C262.554 40.4088 260.716 41.9757 258.538 42.8839C264.913 44.7964 267.608 49.6936 267.608 56.6192C267.608 69.3983 258.915 73.0205 248.251 73.0205H222.316ZM231.676 39.1458H242.108C244.555 39.2168 247.002 39.0323 249.41 38.5952C251.111 38.2738 252.67 37.4336 253.873 36.1901C254.877 35.037 255.405 33.5453 255.351 32.0173C255.331 30.5456 254.81 29.1246 253.873 27.9894C252.893 26.7209 251.498 25.8384 249.932 25.4974C247.067 24.962 244.152 24.7385 241.239 24.8309H231.676V39.1458Z" fill="white"/>
<path fill-rule="evenodd" clip-rule="evenodd" d="M155.779 73.0205V16.3984H172.065L182.526 60.9948L192.986 16.3984H209.272V73.0205L199.767 72.6148V24.3673L188.118 73.0205H182.526H176.933L165.255 24.3673V72.6148L155.779 73.0205Z" fill="white"/>
<path fill-rule="evenodd" clip-rule="evenodd" d="M475.402 73.0205H484.095V60.0676L489.89 54.0692L500.177 73.0205H512L496.99 47.4913L510.435 31.9883H500.177L484.066 48.6504V16.3984H475.373L475.402 73.0205ZM437.354 48.5925C437.242 45.9112 438.183 43.2924 439.975 41.2948C441.767 39.2972 444.268 38.0788 446.946 37.8998C448.269 37.9649 449.565 38.2963 450.758 38.8741C451.95 39.4518 453.013 40.2641 453.884 41.2623C454.755 42.2606 455.416 43.4242 455.827 44.6837C456.238 45.9431 456.391 47.2726 456.276 48.5925H437.354ZM446.569 74.6722C450.57 74.5992 454.461 73.3442 457.751 71.0651C461.04 68.786 463.582 65.5847 465.057 61.8642H455.552C454.045 66.0949 450.626 66.9932 446.308 66.9062C441.991 66.8193 437.818 62.5596 437.325 54.4459H465.781C466.158 42.2464 460.391 30.4815 446.946 30.4815C434.34 30.4815 428.11 41.0583 428.11 53.084C428.11 64.1534 434.717 74.6432 446.569 74.6432V74.6722ZM400.756 37.3492H406.551V60.9948C406.343 63.776 406.677 66.5711 407.536 69.2244C408.269 70.6262 409.453 71.7393 410.898 72.383C413.04 73.2831 415.358 73.6892 417.678 73.5711C419.395 73.5408 421.103 73.3369 422.778 72.9625L423.242 66.8193C421.793 66.9932 420.026 67.1091 419.156 67.1091C418.165 67.1784 417.171 67.0094 416.259 66.6165C415.671 66.3186 415.194 65.8416 414.897 65.2545C414.499 64.0112 414.351 62.7013 414.462 61.4005V37.3492H422.489V31.9883H414.752V19.2962H406.696V31.9883H400.9L400.756 37.3492ZM383.369 63.7187C382.424 64.8919 381.228 65.8384 379.869 66.4887C378.51 67.139 377.023 67.4766 375.516 67.4766C374.01 67.4766 372.522 67.139 371.163 66.4887C369.804 65.8384 368.608 64.8919 367.663 63.7187C365.345 60.4597 364.238 56.4931 364.534 52.5044C364.261 48.5186 365.389 44.5626 367.721 41.3191C368.661 40.1436 369.857 39.1984 371.218 38.5556C372.579 37.9127 374.069 37.5893 375.574 37.61C377.078 37.5885 378.567 37.9146 379.924 38.563C381.281 39.2114 382.47 40.1646 383.398 41.3481C385.717 44.5087 386.837 48.3913 386.557 52.3016C386.881 56.3562 385.774 60.3963 383.427 63.7187H383.369ZM360.709 68.3841C362.69 70.2528 365.027 71.7033 367.581 72.6493C370.135 73.5952 372.854 74.0171 375.574 73.8898C379.246 73.9554 382.877 73.1196 386.151 71.4557C389.252 69.896 391.816 67.4435 393.511 64.4142C395.378 60.5465 396.245 56.2722 396.032 51.9828C396.177 49.1747 395.737 46.3671 394.74 43.7381C393.742 41.1092 392.208 38.7164 390.237 36.7117C388.287 34.8524 385.986 33.4002 383.468 32.4399C380.951 31.4797 378.267 31.0307 375.574 31.119C370.602 30.9688 365.738 32.5802 361.839 35.6685C357.318 39.3197 355.087 44.9123 355.087 52.5044C354.898 55.399 355.304 58.3017 356.281 61.033C357.258 63.7643 358.784 66.2662 360.767 68.3841H360.709ZM344.916 73.0205V31.9883H335.353V73.0205H344.916ZM344.916 24.3093V16.3984H335.353V24.3093H344.916ZM312.896 60.5022C312.179 61.6429 311.181 62.5808 309.998 63.2261C308.671 63.8951 307.241 64.3359 305.767 64.5301C304.103 64.7172 302.428 64.7946 300.754 64.7619H289.076V48.0129H299.885C302.605 47.9266 305.325 48.2093 307.97 48.8533C309.717 49.308 311.265 50.3266 312.374 51.751C313.445 53.0906 314.018 54.7597 313.997 56.4743C314.006 57.8925 313.625 59.2859 312.896 60.5022ZM311.215 36.1901C310.019 37.4284 308.471 38.2682 306.781 38.5952C304.373 39.0335 301.926 39.2181 299.479 39.1458H289.076V24.657H298.552C301.465 24.5635 304.38 24.787 307.245 25.3235C308.873 25.6984 310.312 26.6443 311.302 27.9894C312.227 29.1818 312.717 30.6536 312.693 32.1622C312.698 33.6384 312.173 35.0674 311.215 36.1901ZM279.688 16.3984V73.0205H305.767C316.46 73.0205 325.153 69.3983 325.153 56.6192C325.153 49.6936 322.458 44.7964 316.054 42.8839C318.234 41.9793 320.076 40.4132 321.318 38.4064C322.561 36.3996 323.142 34.0533 322.98 31.6986C322.777 20.5132 314.432 16.3984 305.391 16.3984H279.688Z" fill="white"/>
<mask id="mask3_2419_1300" style="mask-type:luminance" maskUnits="userSpaceOnUse" x="279" y="16" width="233" height="59">
<path d="M475.402 73.0205H484.095V60.0676L489.89 54.0692L500.177 73.0205H512L496.99 47.4913L510.435 31.9883H500.177L484.066 48.6504V16.3984H475.373L475.402 73.0205ZM437.354 48.5925C437.242 45.9112 438.183 43.2924 439.975 41.2948C441.767 39.2972 444.268 38.0788 446.946 37.8998C448.269 37.9649 449.565 38.2963 450.758 38.8741C451.95 39.4518 453.013 40.2641 453.884 41.2623C454.755 42.2606 455.416 43.4242 455.827 44.6837C456.238 45.9431 456.391 47.2726 456.276 48.5925H437.354ZM446.569 74.6722C450.57 74.5992 454.461 73.3442 457.751 71.0651C461.04 68.786 463.582 65.5847 465.057 61.8642H455.552C454.045 66.0949 450.626 66.9932 446.308 66.9062C441.991 66.8193 437.818 62.5596 437.325 54.4459H465.781C466.158 42.2464 460.391 30.4815 446.946 30.4815C434.34 30.4815 428.11 41.0583 428.11 53.084C428.11 64.1534 434.717 74.6432 446.569 74.6432V74.6722ZM400.756 37.3492H406.551V60.9948C406.343 63.776 406.677 66.5711 407.536 69.2244C408.269 70.6262 409.453 71.7393 410.898 72.383C413.04 73.2831 415.358 73.6892 417.678 73.5711C419.395 73.5408 421.103 73.3369 422.778 72.9625L423.242 66.8193C421.793 66.9932 420.026 67.1091 419.156 67.1091C418.165 67.1784 417.171 67.0094 416.259 66.6165C415.671 66.3186 415.194 65.8416 414.897 65.2545C414.499 64.0112 414.351 62.7013 414.462 61.4005V37.3492H422.489V31.9883H414.752V19.2962H406.696V31.9883H400.9L400.756 37.3492ZM383.369 63.7187C382.424 64.8919 381.228 65.8384 379.869 66.4887C378.51 67.139 377.023 67.4766 375.516 67.4766C374.01 67.4766 372.522 67.139 371.163 66.4887C369.804 65.8384 368.608 64.8919 367.663 63.7187C365.345 60.4597 364.238 56.4931 364.534 52.5044C364.261 48.5186 365.389 44.5626 367.721 41.3191C368.661 40.1436 369.857 39.1984 371.218 38.5556C372.579 37.9127 374.069 37.5893 375.574 37.61C377.078 37.5885 378.567 37.9146 379.924 38.563C381.281 39.2114 382.47 40.1646 383.398 41.3481C385.717 44.5087 386.837 48.3913 386.557 52.3016C386.881 56.3562 385.774 60.3963 383.427 63.7187H383.369ZM360.709 68.3841C362.69 70.2528 365.027 71.7033 367.581 72.6493C370.135 73.5952 372.854 74.0171 375.574 73.8898C379.246 73.9554 382.877 73.1196 386.151 71.4557C389.252 69.896 391.816 67.4435 393.511 64.4142C395.378 60.5465 396.245 56.2722 396.032 51.9828C396.177 49.1747 395.737 46.3671 394.74 43.7381C393.742 41.1092 392.208 38.7164 390.237 36.7117C388.287 34.8524 385.986 33.4002 383.468 32.4399C380.951 31.4797 378.267 31.0307 375.574 31.119C370.602 30.9688 365.738 32.5802 361.839 35.6685C357.318 39.3197 355.087 44.9123 355.087 52.5044C354.898 55.399 355.304 58.3017 356.281 61.033C357.258 63.7643 358.784 66.2662 360.767 68.3841H360.709ZM344.916 73.0205V31.9883H335.353V73.0205H344.916ZM344.916 24.3093V16.3984H335.353V24.3093H344.916ZM312.896 60.5022C312.179 61.6429 311.181 62.5808 309.998 63.2261C308.671 63.8951 307.241 64.3359 305.767 64.5301C304.103 64.7172 302.428 64.7946 300.754 64.7619H289.076V48.0129H299.885C302.605 47.9266 305.325 48.2093 307.97 48.8533C309.717 49.308 311.265 50.3266 312.374 51.751C313.445 53.0906 314.018 54.7597 313.997 56.4743C314.006 57.8925 313.625 59.2859 312.896 60.5022ZM311.215 36.1901C310.019 37.4284 308.471 38.2682 306.781 38.5952C304.373 39.0335 301.926 39.2181 299.479 39.1458H289.076V24.657H298.552C301.465 24.5635 304.38 24.787 307.245 25.3235C308.873 25.6984 310.312 26.6443 311.302 27.9894C312.227 29.1818 312.717 30.6536 312.693 32.1622C312.698 33.6384 312.173 35.0674 311.215 36.1901ZM279.688 16.3984V73.0205H305.767C316.46 73.0205 325.153 69.3983 325.153 56.6192C325.153 49.6936 322.458 44.7964 316.054 42.8839C318.234 41.9793 320.076 40.4132 321.318 38.4064C322.561 36.3996 323.142 34.0533 322.98 31.6986C322.777 20.5132 314.432 16.3984 305.391 16.3984H279.688Z" fill="white"/>
</mask>
<g mask="url(#mask3_2419_1300)">
<path d="M512 16.3984H279.688V74.6432H512V16.3984Z" fill="white"/>
</g>
</svg>
