<svg width="1081" height="865" viewBox="0 0 1081 865" fill="none" xmlns="http://www.w3.org/2000/svg">
<mask id="mask0_2651_901" style="mask-type:luminance" maskUnits="userSpaceOnUse" x="654" y="294" width="120" height="120">
<path d="M712.485 413.963C724.333 414.227 735.991 410.955 745.972 404.565C755.953 398.175 763.803 388.956 768.522 378.084C773.24 367.213 774.613 355.182 772.464 343.528C770.315 331.873 764.743 321.123 756.458 312.649C748.173 304.175 737.551 298.361 725.948 295.95C714.344 293.539 702.286 294.64 691.311 299.112C680.336 303.584 670.942 311.225 664.329 321.059C657.715 330.893 654.181 342.474 654.178 354.325C654.04 369.955 660.096 385.002 671.023 396.178C681.949 407.354 696.857 413.748 712.485 413.963Z" fill="white"/>
</mask>
<g mask="url(#mask0_2651_901)">
<path d="M823.656 251.578H564.711V445.787H823.656V251.578Z" fill="url(#paint0_radial_2651_901)"/>
</g>
<mask id="mask1_2651_901" style="mask-type:luminance" maskUnits="userSpaceOnUse" x="393" y="0" width="407" height="561">
<path d="M521.863 560.234C555.562 559.805 587.715 546.026 611.267 521.92C634.82 497.813 647.848 465.349 647.492 431.649C647.617 411.978 643.248 392.54 634.719 374.815C626.189 357.09 613.725 341.547 598.275 329.371C609.139 282.002 650.005 217.783 695.675 199.455C697.892 199.455 700.109 199.455 702.4 199.455C728.528 199.124 753.46 188.457 771.741 169.787C790.023 151.118 800.165 125.967 799.948 99.8386C800.224 73.6464 790.088 48.4165 771.768 29.6949C753.448 10.9734 728.444 0.292417 702.252 0C686.847 0.0296378 671.671 3.73244 657.983 10.8012C644.296 17.8699 632.491 28.1008 623.549 40.6449C616.111 50.8829 610.694 62.4453 607.587 74.7127C583.495 103.016 536.717 88.6797 519.868 61.4846C516.07 55.0873 511.028 49.5165 505.039 45.1017C499.051 40.6868 492.239 37.5176 485.004 35.7813C477.77 34.0451 470.261 33.7772 462.921 34.9933C455.582 36.2095 448.561 38.8851 442.273 42.8619C429.496 51.0927 420.438 63.9874 417.028 78.7988C413.619 93.6101 416.127 109.167 424.02 122.156C427.817 128.554 432.86 134.124 438.848 138.539C444.836 142.954 451.649 146.123 458.883 147.86C466.117 149.596 473.626 149.864 480.966 148.648C488.305 147.431 495.327 144.756 501.614 140.779C506.927 137.445 511.648 133.249 515.581 128.364C548.615 105.233 594.728 111.293 616.159 147.282C637.442 190.218 593.324 279.711 560.586 309.271C548.092 305.14 535.022 303.02 521.863 302.989C487.76 302.989 455.054 316.536 430.939 340.651C406.825 364.765 393.277 397.472 393.277 431.575C393.277 465.678 406.825 498.384 430.939 522.498C455.054 546.613 487.76 560.16 521.863 560.16" fill="white"/>
</mask>
<g mask="url(#mask1_2651_901)">
<path d="M654.174 248.734H392.125V581.579H654.174V248.734Z" fill="#5F2D88"/>
<path d="M475.133 28.625H409.066V150.707H475.133V28.625Z" fill="#5F2D88"/>
<path d="M925.522 -46.9297H451.973V258.646H925.522V-46.9297Z" fill="url(#paint1_radial_2651_901)"/>
</g>
<mask id="mask2_2651_901" style="mask-type:luminance" maskUnits="userSpaceOnUse" x="280" y="118" width="297" height="146">
<path d="M357.317 263.077C369.812 263.183 382.15 260.293 393.298 254.648C404.445 249.003 414.078 240.769 421.388 230.635C454.273 193.094 488.859 187.995 512.728 206.988L515.61 209.426C516.793 210.239 517.975 211.052 519.231 211.791C527.708 216.788 537.767 218.377 547.372 216.236C556.976 214.096 565.408 208.386 570.961 200.263C573.542 196.298 575.278 191.844 576.062 187.179C576.845 182.514 576.659 177.737 575.515 173.147C574.371 168.557 572.293 164.252 569.412 160.5C566.531 156.749 562.907 153.631 558.768 151.341C550.664 146.574 541.107 144.905 531.867 146.644C522.628 148.384 514.332 153.413 508.516 160.8C501.126 169.816 477.109 176.689 457.525 171.516C440.454 167.082 427.965 154.001 419.171 148.237C411.753 138.895 402.296 131.375 391.524 126.251C380.751 121.128 368.949 118.537 357.021 118.677C314.899 118.308 280.535 150.898 280.535 190.803C280.535 230.709 314.899 263.077 357.317 263.077Z" fill="white"/>
</mask>
<g mask="url(#mask2_2651_901)">
<path d="M599.293 81.2969H234.598V300.336H599.293V81.2969Z" fill="url(#paint2_radial_2651_901)"/>
</g>
<path fill-rule="evenodd" clip-rule="evenodd" d="M0.28125 815.742H17.0613C19.2391 815.739 21.4135 815.916 23.5624 816.269C25.505 816.586 27.3602 817.304 29.0093 818.378C30.6052 819.327 31.9115 820.694 32.787 822.331C34.0676 825.129 34.4842 828.246 33.9833 831.282C33.4825 834.318 32.0871 837.136 29.9757 839.375C26.3636 841.992 21.9515 843.265 17.5005 842.977H3.61968V862.92H0.28125V815.742ZM3.61968 839.551H17.5884C19.6021 839.582 21.611 839.345 23.5624 838.848C25.0758 838.5 26.4887 837.809 27.6915 836.827C28.7293 835.967 29.5179 834.844 29.9757 833.576C30.4499 832.1 30.6871 830.558 30.6786 829.008C30.751 827.249 30.389 825.499 29.6243 823.913C28.9687 822.656 27.9612 821.618 26.7252 820.926C25.4142 820.21 23.9862 819.734 22.5082 819.52C20.8123 819.386 19.1086 819.386 17.4127 819.52H3.61968V839.551ZM75.7474 819.169H59.5824V863.095H56.2439V819.169H40.1667V815.742H75.7474V819.169Z" fill="#231F20" stroke="black" stroke-width="0.56091" stroke-miterlimit="10"/>
<path fill-rule="evenodd" clip-rule="evenodd" d="M149.206 862.91H145.868V821.355L129.263 862.91H125.662L109.057 821.355V862.91H105.719V815.733H110.639L127.419 858.254L144.374 815.381H149.206V862.91ZM178.549 863.789C176.147 863.85 173.749 863.554 171.433 862.91C169.689 862.426 168.051 861.622 166.601 860.538C165.35 859.586 164.304 858.39 163.526 857.024C162.777 855.661 162.187 854.217 161.769 852.719C161.406 851.16 161.171 849.573 161.066 847.975C160.98 846.366 160.98 844.753 161.066 843.143V815.733H164.493V843.055C164.415 846.009 164.71 848.961 165.371 851.841C165.871 853.798 166.835 855.606 168.183 857.112C169.412 858.358 170.963 859.24 172.663 859.66C176.649 860.602 180.801 860.602 184.787 859.66C186.502 859.277 188.062 858.39 189.267 857.112C190.605 855.578 191.54 853.737 191.991 851.753C192.705 848.881 193.03 845.926 192.957 842.967V815.733H196.296V843.143C196.333 846.091 196.068 849.035 195.505 851.928C194.922 854.259 193.809 856.423 192.254 858.254C190.837 860.068 188.955 861.465 186.808 862.295C184.174 863.311 181.372 863.818 178.549 863.789ZM227.923 863.789C224.903 863.828 221.91 863.23 219.138 862.032C216.48 860.941 214.106 859.258 212.197 857.112C210.139 854.857 208.582 852.193 207.629 849.293C206.537 846.038 206.002 842.622 206.047 839.19C205.985 835.777 206.551 832.382 207.717 829.174C208.675 826.349 210.2 823.748 212.197 821.531C214.089 819.404 216.43 817.724 219.05 816.611C221.837 815.472 224.824 814.905 227.835 814.942C230.243 814.894 232.643 815.22 234.951 815.908C237.02 816.492 238.979 817.412 240.75 818.632C242.421 819.851 243.851 821.371 244.967 823.112C246.133 824.795 246.913 826.715 247.251 828.735H243.649C243.425 827.315 242.885 825.964 242.067 824.782C241.135 823.527 240.008 822.43 238.729 821.531C237.23 820.574 235.603 819.835 233.897 819.335C231.923 818.79 229.883 818.524 227.835 818.544C225.314 818.515 222.81 818.962 220.455 819.862C218.212 820.697 216.217 822.087 214.657 823.903C212.944 825.772 211.655 827.99 210.879 830.404C209.124 836.279 209.124 842.539 210.879 848.414C211.67 850.848 212.957 853.091 214.657 855.003C216.238 856.817 218.225 858.232 220.455 859.132C222.824 860.102 225.364 860.58 227.923 860.538C231.363 860.732 234.795 860.024 237.877 858.483C240.959 856.942 243.585 854.622 245.494 851.753V842.967H232.228V839.541H248.393V862.471H246.46L244.967 856.673C243.955 857.942 242.772 859.066 241.452 860.011C240.163 860.896 238.778 861.633 237.323 862.207C235.839 862.75 234.311 863.162 232.755 863.437C231.157 863.689 229.541 863.806 227.923 863.789ZM260.78 862.91V815.733H264.119V862.91H260.78Z" fill="#231F20" stroke="black" stroke-width="0.56091" stroke-miterlimit="10"/>
<path fill-rule="evenodd" clip-rule="evenodd" d="M332.81 849.406C332.932 851.258 332.604 853.112 331.855 854.81C331.105 856.508 329.956 858 328.505 859.158C324.861 861.692 320.458 862.902 316.03 862.584H299.602V815.67H316.382C320.112 815.43 323.826 816.351 327.012 818.306C328.302 819.354 329.314 820.704 329.958 822.236C330.601 823.769 330.857 825.436 330.702 827.091C330.789 828.232 330.789 829.377 330.702 830.518C330.478 831.663 330.062 832.762 329.472 833.768C328.889 834.812 328.114 835.736 327.188 836.492C326.069 837.324 324.778 837.894 323.41 838.161C325.228 838.26 327.001 838.771 328.593 839.654C329.801 840.298 330.828 841.234 331.58 842.378C332.292 843.478 332.798 844.698 333.074 845.98C333.051 847.126 332.963 848.27 332.81 849.406ZM302.676 859.158H316.03C324.816 859.158 329.208 855.907 329.208 849.406C329.231 847.883 328.993 846.368 328.505 844.926C328.057 843.701 327.225 842.653 326.133 841.938C324.851 841.032 323.379 840.431 321.828 840.181C319.635 839.712 317.394 839.506 315.152 839.566H303.028L302.676 859.158ZM302.676 836.14H315.239C318.297 836.281 321.336 835.582 324.025 834.12C324.915 833.259 325.623 832.229 326.106 831.089C326.59 829.95 326.839 828.724 326.839 827.487C326.839 826.249 326.59 825.024 326.106 823.884C325.623 822.745 324.915 821.714 324.025 820.854C321.391 819.244 318.317 818.506 315.239 818.745H303.028L302.676 836.14ZM376.386 862.496H343.353V815.67H375.595V819.097H346.691V836.667H373.75V840.094H346.691V859.509H376.737L376.386 862.496ZM423.826 862.496H420.664L416.007 850.021C415.579 848.85 415.08 847.706 414.514 846.595C413.962 845.597 413.315 844.656 412.581 843.783C411.85 843.02 410.987 842.395 410.033 841.938C408.986 841.461 407.846 841.221 406.695 841.236H390.354V862.496H387.016V815.67H407.837C409.724 815.668 411.606 815.844 413.46 816.197C415.184 816.509 416.828 817.167 418.292 818.13C419.735 819.079 420.914 820.379 421.718 821.908C422.621 823.859 423.043 825.998 422.948 828.145C422.956 829.655 422.779 831.16 422.421 832.626C422.016 833.934 421.424 835.177 420.664 836.316C419.842 837.398 418.83 838.321 417.677 839.039C416.402 839.82 415.007 840.384 413.548 840.709C414.308 841.287 415.013 841.934 415.656 842.641C416.231 843.286 416.732 843.993 417.15 844.75C417.583 845.484 417.964 846.247 418.292 847.034C418.292 847.913 418.994 848.967 419.346 850.021L423.826 862.496ZM390.003 837.809H406.08C408.055 837.837 410.028 837.66 411.966 837.282C413.41 836.998 414.784 836.431 416.007 835.613C417.079 834.822 417.877 833.716 418.292 832.45C418.862 830.966 419.131 829.383 419.082 827.794C419.201 826.471 418.982 825.14 418.444 823.926C417.906 822.711 417.067 821.654 416.007 820.854C413.354 819.292 410.295 818.558 407.222 818.745H390.354L390.003 837.809ZM469.774 862.496H465.205L447.02 837.019L437.619 846.331V862.848H434.281V815.67H437.619V842.026L463.975 815.67H468.632L449.655 834.559L469.774 862.496ZM514.316 862.496H510.274L504.564 847.298H482.161C481.37 849.757 480.404 852.305 479.438 854.941C478.471 857.576 477.593 860.124 476.626 862.496H473.376C474.869 858.455 476.363 854.414 477.856 850.548C479.35 846.683 480.755 842.729 482.249 838.864L486.642 827.267L490.946 815.67H495.691L514.316 862.496ZM503.51 844.926L492.967 819.009L482.864 844.926H503.51ZM556.837 862.496H553.41V839.391H525.297V862.848H521.959V815.67H525.297V835.964H553.762V815.67H557.188L556.837 862.496Z" fill="#231F20" stroke="black" stroke-width="0.56091" stroke-miterlimit="10"/>
<path fill-rule="evenodd" clip-rule="evenodd" d="M622.714 849.39C622.821 851.253 622.487 853.116 621.739 854.825C620.991 856.535 619.85 858.044 618.409 859.23C614.763 861.683 610.407 862.857 606.022 862.568H588.715V815.655H605.143C608.873 815.426 612.583 816.345 615.774 818.29C617.07 819.333 618.086 820.682 618.73 822.216C619.375 823.75 619.627 825.42 619.464 827.075C619.551 828.216 619.551 829.361 619.464 830.502C619.239 831.647 618.824 832.746 618.234 833.752C617.651 834.796 616.876 835.72 615.949 836.476C614.831 837.308 613.54 837.878 612.172 838.145C613.99 838.244 615.763 838.755 617.355 839.639C618.563 840.282 619.59 841.218 620.342 842.362C621.054 843.462 621.56 844.683 621.836 845.964C622.196 847.088 622.489 848.232 622.714 849.39ZM592.493 859.142H605.143C613.929 859.142 618.234 855.891 618.234 849.39C618.277 847.873 618.069 846.359 617.619 844.91C617.17 843.685 616.338 842.637 615.247 841.923C613.965 841.016 612.492 840.415 610.942 840.166C608.748 839.702 606.507 839.495 604.265 839.551H592.053L592.493 859.142ZM592.493 836.124H604.968C608.028 836.293 611.074 835.592 613.753 834.104C614.803 833.319 615.63 832.274 616.154 831.073C616.677 829.871 616.879 828.554 616.74 827.251C616.82 826.044 616.615 824.834 616.142 823.72C615.669 822.606 614.941 821.619 614.017 820.838C611.38 819.242 608.301 818.534 605.231 818.817H592.053L592.493 836.124ZM634.399 862.48V815.655H637.737V862.832L634.399 862.48ZM670.682 814.512C673.695 814.45 676.687 815.019 679.468 816.182C682.101 817.315 684.466 818.992 686.408 821.101C688.405 823.318 689.93 825.919 690.889 828.745C692.011 831.964 692.575 835.351 692.558 838.76C692.53 842.413 691.784 846.025 690.361 849.39C689.383 852.26 687.862 854.914 685.881 857.209C683.95 859.315 681.621 861.017 679.028 862.217C676.264 863.439 673.265 864.038 670.243 863.974C667.222 864.024 664.226 863.425 661.458 862.217C658.851 861.04 656.518 859.335 654.605 857.209C652.556 854.933 650.973 852.277 649.949 849.39C648.863 846.134 648.329 842.719 648.367 839.287C648.305 835.875 648.871 832.48 650.037 829.272C650.995 826.446 652.52 823.845 654.517 821.629C656.442 819.5 658.812 817.821 661.458 816.709C664.226 815.491 667.218 814.862 670.243 814.864L670.682 814.512ZM670.682 859.933C673.212 859.968 675.722 859.49 678.062 858.527C680.269 857.584 682.247 856.175 683.86 854.398C685.561 852.486 686.847 850.242 687.638 847.809C689.393 841.934 689.393 835.674 687.638 829.799C686.797 827.395 685.482 825.185 683.772 823.298C682.179 821.558 680.232 820.18 678.062 819.256C675.737 818.357 673.262 817.91 670.77 817.939C668.267 817.882 665.781 818.362 663.478 819.344C661.259 820.233 659.254 821.58 657.592 823.298C655.909 825.223 654.625 827.462 653.814 829.887C652.867 832.718 652.392 835.686 652.409 838.672C652.376 841.659 652.851 844.63 653.814 847.457C654.578 849.903 655.867 852.152 657.592 854.046C659.157 855.839 661.11 857.252 663.303 858.176C665.429 859.314 667.756 860.029 670.155 860.284L670.682 859.933ZM733.937 818.729H717.332V862.656H713.906V818.729H697.917V815.303H733.058L733.937 818.729ZM775.667 862.656H741.844V815.655H774.086V819.081H745.182V836.651H772.065V840.078H745.182V859.493H775.14L775.667 862.656ZM821.79 862.656H817.222L798.421 837.003L789.109 846.315V862.832H785.77V815.655H789.109V842.011L815.465 815.655H820.121L801.145 834.543L821.79 862.656ZM865.717 862.656H861.324L833.036 819.52V862.656H829.697V815.655H833.563L861.5 858.703V815.655H864.926L865.717 862.656ZM896.905 814.688C899.917 814.639 902.907 815.207 905.69 816.357C908.31 817.47 910.651 819.15 912.543 821.277C914.597 823.467 916.155 826.074 917.111 828.92C919.34 835.411 919.34 842.46 917.111 848.951C916.133 851.821 914.612 854.475 912.631 856.77C910.7 858.876 908.371 860.578 905.778 861.778C903.009 862.986 900.013 863.585 896.993 863.535C893.971 863.599 890.972 862.999 888.208 861.778C885.588 860.58 883.23 858.878 881.267 856.77C879.287 854.508 877.765 851.882 876.787 849.039C875.701 845.783 875.166 842.368 875.205 838.936C875.159 835.532 875.694 832.145 876.787 828.92C877.811 826.106 879.362 823.512 881.355 821.277C883.28 819.149 885.649 817.469 888.295 816.357C890.787 815.38 893.438 814.873 896.114 814.864L896.905 814.688ZM896.905 860.108C899.408 860.165 901.894 859.685 904.197 858.703C906.428 857.802 908.414 856.387 909.995 854.574C911.751 852.687 913.071 850.438 913.861 847.985C915.616 842.11 915.616 835.85 913.861 829.975C913.019 827.571 911.705 825.361 909.995 823.473C908.402 821.734 906.455 820.356 904.285 819.432C901.96 818.533 899.485 818.086 896.993 818.114C894.463 818.079 891.953 818.557 889.613 819.52C887.434 820.435 885.462 821.779 883.815 823.473C882.132 825.398 880.848 827.638 880.037 830.062C879.09 832.894 878.615 835.862 878.631 838.848C878.608 841.827 879.053 844.792 879.949 847.633C880.775 850.051 882.057 852.288 883.727 854.222C885.34 855.999 887.318 857.408 889.525 858.351C891.584 859.396 893.818 860.052 896.114 860.284L896.905 860.108ZM955.767 862.656H928.532V815.655H931.959V859.581H955.767V862.656ZM984.495 814.688C987.508 814.626 990.5 815.195 993.28 816.357C995.926 817.469 998.296 819.149 1000.22 821.277C1002.22 823.494 1003.74 826.095 1004.7 828.92C1005.87 832.128 1006.43 835.523 1006.37 838.936C1006.42 842.34 1005.88 845.727 1004.79 848.951C1003.75 851.809 1002.2 854.457 1000.22 856.77C998.29 858.876 995.961 860.578 993.368 861.778C990.604 862.999 987.605 863.599 984.583 863.535C981.562 863.585 978.566 862.986 975.797 861.778C973.205 860.578 970.876 858.876 968.945 856.77C966.969 854.489 965.421 851.87 964.377 849.039C963.291 845.783 962.756 842.368 962.795 838.936C962.733 835.523 963.299 832.128 964.464 828.92C965.421 826.074 966.979 823.467 969.033 821.277C970.944 819.171 973.279 817.495 975.885 816.357C978.379 815.389 981.029 814.883 983.704 814.864L984.495 814.688ZM984.495 860.108C987.025 860.143 989.535 859.665 991.875 858.703C994.082 857.759 996.06 856.351 997.673 854.574C999.374 852.662 1000.66 850.418 1001.45 847.985C1003.33 842.128 1003.33 835.831 1001.45 829.975C1000.64 827.576 999.355 825.365 997.673 823.473C996.034 821.748 994.061 820.373 991.875 819.432C989.58 818.534 987.134 818.086 984.671 818.114C982.14 818.062 979.625 818.54 977.291 819.52C975.086 820.387 973.105 821.738 971.493 823.473C969.782 825.394 968.469 827.633 967.627 830.062C966.712 832.899 966.266 835.867 966.309 838.848C966.286 841.827 966.731 844.792 967.627 847.633C968.418 850.067 969.704 852.31 971.405 854.222C972.986 856.036 974.972 857.45 977.203 858.351C979.197 859.401 981.375 860.057 983.616 860.284L984.495 860.108ZM1035.8 863.535C1032.78 863.574 1029.79 862.976 1027.02 861.778C1024.36 860.687 1021.98 859.004 1020.08 856.858C1018.02 854.603 1016.46 851.939 1015.51 849.039C1014.42 845.784 1013.88 842.368 1013.93 838.936C1013.86 835.523 1014.43 832.128 1015.6 828.92C1016.55 826.095 1018.08 823.494 1020.08 821.277C1021.97 819.15 1024.31 817.47 1026.93 816.357C1029.72 815.218 1032.7 814.651 1035.71 814.688C1038.12 814.64 1040.52 814.966 1042.83 815.655C1044.9 816.238 1046.86 817.158 1048.63 818.378C1050.31 819.537 1051.77 820.996 1052.93 822.683C1054.1 824.366 1054.88 826.286 1055.22 828.305H1051.62C1051.36 826.88 1050.79 825.53 1049.95 824.352C1049.07 823.079 1047.97 821.977 1046.7 821.101C1045.2 820.144 1043.57 819.405 1041.86 818.905C1039.89 818.36 1037.85 818.094 1035.8 818.114C1033.28 818.085 1030.78 818.532 1028.42 819.432C1026.18 820.267 1024.18 821.657 1022.62 823.473C1020.94 825.365 1019.66 827.576 1018.85 829.975C1017.09 835.85 1017.09 842.11 1018.85 847.985C1019.64 850.418 1020.92 852.662 1022.62 854.574C1024.2 856.387 1026.19 857.802 1028.42 858.703C1030.79 859.672 1033.33 860.151 1035.89 860.108C1039.33 860.303 1042.76 859.594 1045.84 858.053C1048.93 856.512 1051.55 854.192 1053.46 851.323V842.538H1040.63V839.111H1056.8V862.041H1053.2L1051.7 855.804C1050.68 857.093 1049.46 858.219 1048.1 859.142C1046.83 860.062 1045.44 860.802 1043.97 861.338C1042.52 861.892 1041.02 862.304 1039.49 862.568C1038 863.072 1036.47 863.454 1034.92 863.71L1035.8 863.535ZM1068.66 862.656V815.655H1070.77V862.832L1068.66 862.656Z" fill="#231F20" stroke="black" stroke-width="0.56091" stroke-miterlimit="10"/>
<path fill-rule="evenodd" clip-rule="evenodd" d="M230.404 750.206H266.16C271.237 750.305 276.314 750.07 281.359 749.503C285.826 748.914 290.162 747.578 294.186 745.549C297.772 743.593 300.797 740.75 302.971 737.291C305.203 733.52 306.329 729.197 306.222 724.816C306.348 719.622 304.637 714.551 301.39 710.496C298.027 706.177 293.333 703.089 288.036 701.71C279.988 699.759 271.714 698.902 263.437 699.163H230.404V750.206ZM202.027 775.244V603.578H280.129C307.364 603.578 332.841 615.965 332.841 649.965C333.319 657.102 331.551 664.209 327.786 670.291C324.02 676.372 318.446 681.123 311.844 683.876C331.172 689.675 339.342 704.522 339.342 725.519C339.342 764.262 312.986 775.244 280.656 775.244H202.027ZM230.404 672.543H262.031C269.449 672.758 276.869 672.199 284.17 670.874C289.325 669.899 294.052 667.352 297.7 663.582C300.744 660.086 302.345 655.564 302.18 650.931C302.121 646.469 300.54 642.161 297.7 638.72C294.73 634.874 290.499 632.198 285.752 631.164C277.065 629.541 268.228 628.863 259.396 629.143H230.404V672.543Z" fill="#270E46"/>
<path fill-rule="evenodd" clip-rule="evenodd" d="M0.28125 775.244V603.578H49.6549L81.3701 738.785L113.085 603.578H162.459V775.244L133.643 774.014V627.738L98.3258 775.244H81.3701H64.4143L29.0094 627.738V774.014L0.28125 775.244Z" fill="#270E46"/>
<path fill-rule="evenodd" clip-rule="evenodd" d="M969.323 775.244H995.679V735.973L1013.25 717.788L1044.44 775.244H1080.28L1034.77 697.845L1075.54 650.843H1044.44L995.592 701.359V603.578H969.236L969.323 775.244ZM853.972 701.183C853.633 693.054 856.484 685.115 861.917 679.058C867.349 673.002 874.933 669.308 883.051 668.765C887.063 668.963 890.994 669.968 894.608 671.719C898.223 673.471 901.447 675.934 904.088 678.96C906.729 681.986 908.732 685.514 909.978 689.333C911.224 693.151 911.688 697.182 911.34 701.183H853.972ZM881.909 780.252C894.041 780.03 905.835 776.225 915.809 769.316C925.783 762.406 933.49 752.7 937.96 741.42H909.144C904.575 754.247 894.209 756.97 881.119 756.707C868.028 756.443 855.377 743.529 853.884 718.93H940.156C941.298 681.943 923.815 646.275 883.051 646.275C844.835 646.275 825.947 678.341 825.947 714.801C825.947 748.361 845.977 780.164 881.909 780.164V780.252ZM743.013 667.096H760.584V738.785C759.952 747.216 760.966 755.691 763.571 763.735C765.791 767.985 769.382 771.36 773.762 773.311C780.257 776.04 787.283 777.271 794.319 776.913C799.522 776.821 804.703 776.203 809.782 775.068L811.187 756.443C806.794 756.97 801.435 757.322 798.8 757.322C795.794 757.532 792.782 757.02 790.014 755.828C788.235 754.925 786.788 753.479 785.885 751.699C784.679 747.93 784.231 743.958 784.568 740.015V667.096H808.903V650.843H785.446V612.363H761.023V650.843H743.452L743.013 667.096ZM690.301 747.043C687.435 750.6 683.809 753.469 679.689 755.441C675.569 757.412 671.06 758.436 666.492 758.436C661.925 758.436 657.416 757.412 653.296 755.441C649.176 753.469 645.55 750.6 642.684 747.043C635.655 737.162 632.299 725.136 633.196 713.044C632.37 700.959 635.788 688.966 642.86 679.132C645.71 675.568 649.336 672.703 653.462 670.754C657.589 668.805 662.105 667.824 666.668 667.887C671.228 667.822 675.741 668.81 679.855 670.776C683.97 672.742 687.575 675.632 690.389 679.22C697.42 688.802 700.815 700.573 699.965 712.429C700.948 724.721 697.591 736.97 690.476 747.043H690.301ZM621.599 761.187C627.606 766.853 634.692 771.251 642.436 774.118C650.179 776.986 658.42 778.265 666.668 777.879C677.8 778.078 688.81 775.544 698.735 770.5C708.137 765.771 715.909 758.336 721.05 749.151C726.709 737.425 729.337 724.467 728.693 711.462C729.133 702.949 727.798 694.436 724.774 686.466C721.749 678.496 717.1 671.241 711.122 665.163C705.21 659.526 698.234 655.124 690.601 652.212C682.969 649.301 674.833 647.94 666.668 648.208C651.595 647.752 636.846 652.638 625.026 662.001C611.32 673.07 604.556 690.026 604.556 713.044C603.981 721.819 605.213 730.62 608.175 738.9C611.137 747.181 615.765 754.766 621.775 761.187H621.599ZM573.719 775.244V650.843H544.727V775.244H573.719ZM573.719 627.562V603.578H544.727V627.562H573.719ZM476.641 737.291C474.467 740.75 471.442 743.593 467.856 745.549C463.832 747.578 459.496 748.914 455.029 749.503C449.984 750.07 444.907 750.305 439.83 750.206H404.425V699.426H437.195C445.443 699.165 453.688 700.022 461.706 701.974C467.003 703.353 471.697 706.441 475.06 710.759C478.305 714.821 480.044 719.881 479.979 725.08C480.007 729.379 478.852 733.604 476.641 737.291ZM471.546 663.582C467.921 667.336 463.227 669.882 458.104 670.874C450.803 672.203 443.383 672.762 435.965 672.543H404.425V628.616H433.154C441.986 628.333 450.823 629.01 459.51 630.637C464.444 631.774 468.808 634.641 471.809 638.72C474.612 642.334 476.1 646.797 476.026 651.37C476.041 655.846 474.451 660.178 471.546 663.582ZM375.961 603.578V775.244H455.029C487.447 775.244 513.803 764.262 513.803 725.519C513.803 704.522 505.633 689.675 486.217 683.876C492.827 681.134 498.409 676.386 502.176 670.301C505.943 664.217 507.705 657.104 507.214 649.965C506.599 616.053 481.297 603.578 453.887 603.578H375.961Z" fill="url(#paint3_linear_2651_901)"/>
<mask id="mask3_2651_901" style="mask-type:luminance" maskUnits="userSpaceOnUse" x="375" y="603" width="706" height="178">
<path d="M969.323 775.244H995.679V735.973L1013.25 717.788L1044.44 775.244H1080.28L1034.77 697.845L1075.54 650.843H1044.44L995.592 701.359V603.578H969.236L969.323 775.244ZM853.972 701.183C853.633 693.054 856.484 685.115 861.917 679.058C867.349 673.002 874.933 669.308 883.051 668.765C887.063 668.963 890.994 669.968 894.608 671.719C898.223 673.471 901.447 675.934 904.088 678.96C906.729 681.986 908.732 685.514 909.978 689.333C911.224 693.151 911.688 697.182 911.34 701.183H853.972ZM881.909 780.252C894.041 780.03 905.835 776.225 915.809 769.316C925.783 762.406 933.49 752.7 937.96 741.42H909.144C904.575 754.247 894.209 756.97 881.119 756.707C868.028 756.443 855.377 743.529 853.884 718.93H940.156C941.298 681.943 923.815 646.275 883.051 646.275C844.835 646.275 825.947 678.341 825.947 714.801C825.947 748.361 845.977 780.164 881.909 780.164V780.252ZM743.013 667.096H760.584V738.785C759.952 747.216 760.966 755.691 763.571 763.735C765.791 767.985 769.382 771.36 773.762 773.311C780.257 776.04 787.283 777.271 794.319 776.913C799.522 776.821 804.703 776.203 809.782 775.068L811.187 756.443C806.794 756.97 801.435 757.322 798.8 757.322C795.794 757.532 792.782 757.02 790.014 755.828C788.235 754.925 786.788 753.479 785.885 751.699C784.679 747.93 784.231 743.958 784.568 740.015V667.096H808.903V650.843H785.446V612.363H761.023V650.843H743.452L743.013 667.096ZM690.301 747.043C687.435 750.6 683.809 753.469 679.689 755.441C675.569 757.412 671.06 758.436 666.492 758.436C661.925 758.436 657.416 757.412 653.296 755.441C649.176 753.469 645.55 750.6 642.684 747.043C635.655 737.162 632.299 725.136 633.196 713.044C632.37 700.959 635.788 688.966 642.86 679.132C645.71 675.568 649.336 672.703 653.462 670.754C657.589 668.805 662.105 667.824 666.668 667.887C671.228 667.822 675.741 668.81 679.855 670.776C683.97 672.742 687.575 675.632 690.389 679.22C697.42 688.802 700.815 700.573 699.965 712.429C700.948 724.721 697.591 736.97 690.476 747.043H690.301ZM621.599 761.187C627.606 766.853 634.692 771.251 642.436 774.118C650.179 776.986 658.42 778.265 666.668 777.879C677.8 778.078 688.81 775.544 698.735 770.5C708.137 765.771 715.909 758.336 721.05 749.151C726.709 737.425 729.337 724.467 728.693 711.462C729.133 702.949 727.798 694.436 724.774 686.466C721.749 678.496 717.1 671.241 711.122 665.163C705.21 659.526 698.234 655.124 690.601 652.212C682.969 649.301 674.833 647.94 666.668 648.208C651.595 647.752 636.846 652.638 625.026 662.001C611.32 673.07 604.556 690.026 604.556 713.044C603.981 721.819 605.213 730.62 608.175 738.9C611.137 747.181 615.765 754.766 621.775 761.187H621.599ZM573.719 775.244V650.843H544.727V775.244H573.719ZM573.719 627.562V603.578H544.727V627.562H573.719ZM476.641 737.291C474.467 740.75 471.442 743.593 467.856 745.549C463.832 747.578 459.496 748.914 455.029 749.503C449.984 750.07 444.907 750.305 439.83 750.206H404.425V699.426H437.195C445.443 699.165 453.688 700.022 461.706 701.974C467.003 703.353 471.697 706.441 475.06 710.759C478.305 714.821 480.044 719.881 479.979 725.08C480.007 729.379 478.852 733.604 476.641 737.291ZM471.546 663.582C467.921 667.336 463.227 669.882 458.104 670.874C450.803 672.203 443.383 672.762 435.965 672.543H404.425V628.616H433.154C441.986 628.333 450.823 629.01 459.51 630.637C464.444 631.774 468.808 634.641 471.809 638.72C474.612 642.334 476.1 646.797 476.026 651.37C476.041 655.846 474.451 660.178 471.546 663.582ZM375.961 603.578V775.244H455.029C487.447 775.244 513.803 764.262 513.803 725.519C513.803 704.522 505.633 689.675 486.217 683.876C492.827 681.134 498.409 676.386 502.176 670.301C505.943 664.217 507.705 657.104 507.214 649.965C506.599 616.053 481.297 603.578 453.887 603.578H375.961Z" fill="white"/>
</mask>
<g mask="url(#mask3_2651_901)">
<path d="M1080.28 603.578H375.961V780.164H1080.28V603.578Z" fill="url(#paint4_linear_2651_901)"/>
</g>
<defs>
<radialGradient id="paint0_radial_2651_901" cx="0" cy="0" r="1" gradientUnits="userSpaceOnUse" gradientTransform="translate(728.103 332.72) scale(114.471 114.471)">
<stop stop-color="#AF65A9"/>
<stop offset="0.56" stop-color="#5F2D88"/>
</radialGradient>
<radialGradient id="paint1_radial_2651_901" cx="0" cy="0" r="1" gradientUnits="userSpaceOnUse" gradientTransform="translate(688.747 105.304) scale(184.232 257.925)">
<stop stop-color="#AB4599"/>
<stop offset="0.75" stop-color="#5F2D88"/>
</radialGradient>
<radialGradient id="paint2_radial_2651_901" cx="0" cy="0" r="1" gradientUnits="userSpaceOnUse" gradientTransform="translate(324.312 184.387) scale(97.4738 97.4738)">
<stop stop-color="#AF65A9"/>
<stop offset="0.22" stop-color="#A35DA4"/>
<stop offset="0.62" stop-color="#844797"/>
<stop offset="1" stop-color="#5F2D88"/>
</radialGradient>
<linearGradient id="paint3_linear_2651_901" x1="375.961" y1="691.871" x2="1080.28" y2="691.871" gradientUnits="userSpaceOnUse">
<stop stop-color="#7E2A8A"/>
<stop offset="1" stop-color="#A53793"/>
</linearGradient>
<linearGradient id="paint4_linear_2651_901" x1="571.523" y1="645.045" x2="1219.88" y2="838.762" gradientUnits="userSpaceOnUse">
<stop stop-color="#7E2A8A"/>
<stop offset="0.61" stop-color="#A53793"/>
</linearGradient>
</defs>
</svg>
